<svg xmlns="http://www.w3.org/2000/svg" viewBox="0 0 222.83 174.17"><defs><style>.cls-1,.cls-2{fill:#552402;}.cls-1{stroke:#552402;}.cls-1,.cls-2,.cls-3{stroke-miterlimit:10;stroke-width:2px;}.cls-2{stroke:#53270f;}.cls-3{fill:#f47a27;stroke:#ff7b20;}</style></defs><title>logo_1</title><g id="Layer_2" data-name="Layer 2"><g id="logo"><g id="logo-2" data-name="logo"><g id="brown"><path class="cls-1" d="M58.92,44.32V161L1.4,102.65Z"/><polygon class="cls-1" points="158.58 45.99 115.64 2.44 115.64 89.54 158.58 45.99"/><polygon class="cls-1" points="221.42 102.65 163.9 44.32 163.9 160.98 221.42 102.65"/><polygon class="cls-2" points="117.99 136.54 151.34 114.44 152.12 93.57 117.67 116.39 117.99 136.54"/><polygon class="cls-2" points="118.82 172.21 151.77 147.39 152.22 126.51 118.13 149.86 118.82 172.21"/></g><g id="orange"><polygon class="cls-3" points="63.66 45.99 106.61 89.54 106.61 2.44 63.66 45.99"/><polygon class="cls-3" points="108.33 136.32 74.69 114.65 73.65 93.79 108.39 116.17 108.33 136.32"/><polygon class="cls-3" points="106.53 172.21 73.59 147.39 73.13 126.51 107.22 149.86 106.53 172.21"/></g></g></g></g></svg>