<svg xmlns="http://www.w3.org/2000/svg" viewBox="0 0 242 242"><defs><style>.cls-1{fill:#fff;}.cls-2{fill:#552402;}.cls-3{fill:#ff7b20;}.cls-4{fill:#ff7f26;stroke:#fff;stroke-miterlimit:10;stroke-width:2px;}</style></defs><title>ufav</title><g id="Layer_2" data-name="Layer 2"><g id="Layer_1-2" data-name="Layer 1"><circle class="cls-1" cx="121" cy="121" r="121"/><g id="logo"><polygon class="cls-2" points="12.48 124.17 70 182.5 70 65.84 12.48 124.17"/><polygon class="cls-3" points="74.74 67.51 117.69 111.05 117.69 23.96 74.74 67.51"/><polygon class="cls-2" points="169.66 67.51 126.72 23.96 126.72 111.05 169.66 67.51"/><polygon class="cls-2" points="232.5 124.17 174.98 65.84 174.98 182.5 232.5 124.17"/><polygon class="cls-4" points="119.41 157.84 85.77 136.17 84.73 115.31 119.46 137.69 119.41 157.84"/><polygon class="cls-2" points="129.06 158.06 162.42 135.96 163.2 115.09 128.75 137.91 129.06 158.06"/><polygon class="cls-2" points="129.9 193.73 162.84 168.91 163.3 148.03 129.21 171.38 129.9 193.73"/><polygon class="cls-4" points="117.61 193.73 84.67 168.91 84.21 148.03 118.3 171.38 117.61 193.73"/></g></g></g></svg>