<svg xmlns="http://www.w3.org/2000/svg" viewBox="0 0 399.84 228"><defs><style>.cls-1{fill:#606060;}</style></defs><title>cairn</title><g id="Layer_2" data-name="Layer 2"><g id="Layer_1-2" data-name="Layer 1"><path class="cls-1" d="M217.84,0,237,2.15c41.59,4.72,81.2,15.4,116.45,39,4.75,3.18,8.89,7.26,13.31,10.92l.1-.09A20,20,0,0,1,364,50.27c-16.46-13.38-35-23.1-54.77-30.4C268.62,4.91,226.61-.28,183.57,1.69,148.88,3.27,115.16,9.6,83,22.9,57.9,33.26,35.05,47,17.91,68.64c-21.38,27-22.41,58.15-3.12,86.5a35.79,35.79,0,0,1,2,3.9l.09-.1c-9-9.46-13.76-21-15.85-33.61C-3.65,97.2,8.07,75,27.58,56.22c23.23-22.35,51.84-35,82.33-43.9A298.6,298.6,0,0,1,177.08,1a32,32,0,0,0,4.76-1Z"/><path class="cls-1" d="M366.78,176c-4.56,3.75-8.85,7.91-13.72,11.2-26.87,18.15-56.87,28.6-88.48,34.46-14,2.6-28.3,3.64-42.46,5.43-1.44.18-2.85.63-4.28.95h-36c-6.23-.71-12.45-1.48-18.69-2.13a298.77,298.77,0,0,1-63.77-13.49A13.57,13.57,0,0,1,96.92,211l-.11.11c6.4,1.71,12.79,3.48,19.21,5.14A334.92,334.92,0,0,0,267.48,220c32.6-6.56,63.39-17.88,90.54-37.72,2.92-2.13,5.91-4.17,8.86-6.25Z"/><path class="cls-1" d="M96.92,211c-9-3.49-18.44-6.31-27.07-10.65-10-5-19.36-11.38-28.94-17.25a17.31,17.31,0,0,1-3-3.09l-.1.09c1.27.71,2.55,1.4,3.81,2.12,12,6.92,24,14.07,36.2,20.66,6,3.27,12.65,5.52,19,8.23Z"/><path class="cls-1" d="M37.9,180a64.18,64.18,0,0,1-21-21l-.09.1,21,21Z"/><path class="cls-1" d="M366.78,52c10.74,7.43,18.48,17.52,24.49,28.84,15.49,29.19,9.73,61.55-15.22,87.06-2.85,2.91-6.17,5.36-9.27,8l.1.09c.79-1,1.55-2,2.38-3,5.53-6.38,11.68-12.33,16.49-19.22,10.22-14.64,15-30.95,12.33-49-2.23-15.28-9.22-28.28-19.15-39.82-3.86-4.49-8-8.72-12.05-13.07Z"/><path class="cls-1" d="M187.78,9.92c53.46.13,93.45,6.63,131.42,23.32C338.74,41.83,356.58,53,371,69.07c25.1,28.07,25,62.08-.39,90-17.83,19.59-40.4,31.85-64.89,40.84C265.06,214.79,223,219.6,180,217.18c-34.52-1.94-68-8.64-99.74-22.66-19-8.41-36.54-19.17-50.8-34.65-27.14-29.44-26.53-65.25,1.72-94C51.4,45.27,76.54,33,103.59,24.25,134.91,14.13,167.12,9.74,187.78,9.92Zm44,110.1c3.57.64,6.73,1.58,9.91,1.71,9.15.35,10.34,1.13,11.93,10.41.65,3.74,2.17,5.27,6.23,5.17,11.65-.28,23.32-.09,35-.11,1.59,0,3.17-.2,5.37-.35V113.77c6.64,7.17,12.17,13.62,18.28,19.48,2.15,2.06,5.59,3.18,8.63,3.82s6.31.2,9.47.12c4.71-.13,7.73-2.53,7.83-7.29.24-11.49.21-23,.09-34.48,0-1-1.46-3-2.29-3-6.43-.25-12.87-.14-20-.14v22.88c-4.61-5.11-8.76-8.84-11.84-13.31-5.52-8-12.65-10.77-22.21-9.81-8,.79-10.38,2.54-10.4,10.58,0,10.19,0,20.39,0,30.58-1.72-6.72-2.46-13.7-10.68-16.63l3-1.89c8.38-5.32,8.2-14.43-.63-18.85a26,26,0,0,0-10.43-3c-16.15-.43-32.3-.39-48.45-.48A4.22,4.22,0,0,0,209,93v43.93h22.74ZM204.66,137.2v-45H188.38c-6.6,0-6.6,0-6.61,6.47v29.63c-5.45-7.36-10-14.9-14.53-22.4C157.72,90.36,162,92.4,142.7,92.16c-4.52,0-7.47,1.78-9.71,5.65-4.32,7.46-8.92,14.77-13,21.44-7.62,0-14.54-.12-21.45.1a5.7,5.7,0,0,0-3.7,2.24c-4,5.41-9.45,5.65-15.27,4.32-6.12-1.4-9-5.53-8.72-12.09.25-5.62,3.77-9.78,9.49-10.5,5.35-.69,10.69-.8,14.69,4a5.25,5.25,0,0,0,3.39,1.82c6.43.18,12.86.09,19.64.09-.84-6.63-4.23-11-9.44-13.22C91.31,88.67,73.76,88.4,57.28,98c-13.66,8-13.23,25.1.12,33.67,7.24,4.64,15.39,6.14,23.8,6.53,11,.5,21.58-1,31.69-7.64l-3.33,6.66c6.85,0,13-.17,19.11.07,3,.12,4.43-1.11,5.68-3.63q4.64-9.39,9.78-18.54c.8-1.43,2.52-3.36,3.71-3.29s2.8,2.06,3.56,3.54c3.18,6.23,6,12.62,9.21,18.84.63,1.25,2.21,2.85,3.37,2.87C177.44,137.27,190.91,137.2,204.66,137.2Z"/><path class="cls-1" d="M232.15,113.4V103.12c6,.38,11.72.58,17.39,1.25,1.16.14,2.94,2,2.93,3.14s-1.69,2.87-2.93,3.17c-2.86.69-5.9.54-8.83,1S235.09,112.79,232.15,113.4Z"/></g></g></svg>