<svg id="Layer_1" data-name="Layer 1" xmlns="http://www.w3.org/2000/svg" viewBox="0 0 286.45 342.37"><defs><style>.cls-1{fill:#606060;}</style></defs><title>indianoilsvg</title><path class="cls-1" d="M1099.1,473.53c1.24,77.33-63.84,141.54-141,142.58-80.34,1.08-145.75-65-145.45-142.93.3-77.3,63.81-142.31,143.54-142.29C1035.67,330.9,1100.37,396.49,1099.1,473.53Zm-280.41-.47c-1,73.77,59.79,134.12,131.16,137.13,77.83,3.28,144.05-58.49,143.76-136.72-.29-79-64-134.33-132.85-136.65C880.72,334.12,817.66,400.2,818.69,473.06Z" transform="translate(-812.66 -330.89)"/><path class="cls-1" d="M1040.94,673.11c-14.75,0-22.9-8.77-22.87-24.52,0-15.34,8.79-24.61,23.15-24.51s22.79,9.62,22.72,25.58C1063.86,664.35,1055.24,673.14,1040.94,673.11Zm14.45-23.73-1.34-.61c0-1.16.09-2.34,0-3.49-.67-7.27-5.3-12.19-11.75-12.56-7.58-.42-13,3.42-14,11a30.08,30.08,0,0,0,.89,12.74c2.81,8.79,13.86,11.83,20.09,5.32C1052.31,658.64,1053.41,653.59,1055.39,649.38Z" transform="translate(-812.66 -330.89)"/><path class="cls-1" d="M907.58,669c-5,4.34-10.27,5.56-15.93,2.9-6.35-3-8.19-8.87-8.52-15.24-.57-11.12,4.14-18.22,13.12-18.92,3.64-.28,7.45,1.58,11.66,2.58v-14.8h8.69v46.44C913.45,671.36,909.7,674.17,907.58,669Zm-15.66-14.48.73.33c.12,1.65-.37,3.76.47,4.85,1.85,2.41,4.18,5.66,6.66,6,2.14.29,6.27-2.6,6.83-4.77a23.77,23.77,0,0,0-.45-12.32c-1.46-4.8-7.5-5.73-10.75-1.88C893.65,648.78,893.05,651.85,891.92,654.48Z" transform="translate(-812.66 -330.89)"/><path class="cls-1" d="M962.39,671c-4,.69-8,1.83-11.93,1.94a9.1,9.1,0,0,1-9.37-7.87c-.74-5.28,1.37-9.28,6.36-11,3.89-1.32,8-1.9,12-3.12,1.1-.34,2.62-1.78,2.6-2.68,0-1.13-1.32-3-2.28-3.18-2.32-.34-6-.79-7,.47-3.23,4.15-6.61,2.3-10.6,1.59,1.32-5.14,4.13-8.51,9.24-9a49.63,49.63,0,0,1,12.3.09c4.52.66,7.25,3.49,7.31,8.54.09,8.25.45,16.49.71,25.5Zm-.54-14.63c-3,.73-5.89.91-8.21,2.2-1.57.87-2.3,3.29-3.4,5,2.17,1.09,4.58,3.41,6.47,3C961.48,665.69,963,661.93,961.85,656.36Z" transform="translate(-812.66 -330.89)"/><path class="cls-1" d="M867.09,671.68c0-6.57-.09-13,0-19.45.07-3.82-.44-7.09-5-7.74-3.66-.51-7.11,2.14-7.48,6.88-.5,6.6-.12,13.26-.12,20.3h-9.1V638.08c3.23.93,7.58-2.51,8.49,2.1,4.7-.76,9.39-2.35,14-2,5.76.38,8.06,3.57,8.17,9.32.17,7.93,0,15.86,0,24.22Z" transform="translate(-812.66 -330.89)"/><path class="cls-1" d="M988.92,671.87h-8.69V638.5c3.07.12,6.85-2.62,8.12,1.43,4.95-.68,9.67-1.87,14.37-1.83s7.69,3.75,7.94,8.18c.48,8.42.14,16.88.14,25.57h-8.88c0-6.47.14-12.76,0-19-.17-5.94-2.33-8.66-6.24-8.47-4.13.2-6.64,3.48-6.7,9C988.87,659.3,988.92,665.29,988.92,671.87Z" transform="translate(-812.66 -330.89)"/><path class="cls-1" d="M835.69,671.86h-8.33V625.35h8.33Z" transform="translate(-812.66 -330.89)"/><path class="cls-1" d="M1089.41,625.22h8.18v46.57h-8.18Z" transform="translate(-812.66 -330.89)"/><path class="cls-1" d="M933.8,638.5v33.33h-8.39V638.5Z" transform="translate(-812.66 -330.89)"/><path class="cls-1" d="M1071.41,638.22h8.52v33.57h-8.52Z" transform="translate(-812.66 -330.89)"/><path class="cls-1" d="M933.83,625.35v7.36h-8.44v-7.36Z" transform="translate(-812.66 -330.89)"/><path class="cls-1" d="M1071.26,632.77v-7.4h8.3v7.4Z" transform="translate(-812.66 -330.89)"/><path class="cls-1" d="M818.69,473.06c-1-72.86,62-138.94,142.07-136.24,68.87,2.32,132.56,57.69,132.85,136.65.29,78.23-65.93,140-143.76,136.72C878.48,607.18,817.65,546.83,818.69,473.06Zm137.73,132c72,.84,132.83-58.63,132.28-131.24-.56-75-59.78-131.29-131.59-131.61A131.34,131.34,0,0,0,824.39,472.18C823.53,548.07,886.16,606,956.42,605.09Z" transform="translate(-812.66 -330.89)"/><path class="cls-1" d="M956.42,605.09c-70.26.86-132.89-57-132-132.91A131.34,131.34,0,0,1,957.11,342.24c71.81.32,131,56.63,131.59,131.61C1089.25,546.46,1028.43,605.93,956.42,605.09ZM835,456.93c.09,2,.15,3.41.25,5.54h13.66a10.69,10.69,0,0,1-.13,1.72q-2.88.44-5.77.76c-5.15.56-9,3.91-8.84,7.78.14,4.56,3,6.78,8.9,7.4,2.92.31,5.77,1.3,9.07,2.09-2.79,4.93-5.19,6-8.85,2.63-2.34-2.16-5.79-3.2-7.88-.26-1.09,1.56-.92,5.6.35,6.92,3.61,3.76,8.08,6.7,13.29,10.82.64-3.06,1.17-5.6,1.89-9.07a4.6,4.6,0,0,0,2.3-1.12c2.11-2.3,5-4.62,5.62-7.38,1.38-5.92-2.46-9.71-8.68-9.86-3-.07-6-.33-9-.5,0-.85,0-1.7,0-2.55L857,470.66l.47-8.61,5.59.27V492h6.88v-29.6h16.78l.41,1.66c-1.5.35-3,.76-4.51,1-4.23.79-8.3,1.77-8.74,7.14-.43,5.22,3.23,6.81,7.27,7.9,3.24.87,6.54,1.56,10.68,2.54-3.31,4.79-7.43,4-10.67,3-3.64-1.18-5.26.06-6.89,3.16,5.55,3.7,11.32,5.38,17.75,2.6a9.49,9.49,0,0,0,6.12-9.43c-.09-4.44-4.13-4.75-7.14-5.67a56.22,56.22,0,0,0-8.34-1.36c-1.15-.17-2.31-.28-3.46-.42l2-2.62h13.54c.23-3.6.44-6.64.75-11.4,3.47,1.94,7.12,2.71,8.16,4.8,2.47,4.9-2.64,6.52-5.48,8.79,3.63,10.09,7.74,12.51,19.17,11.34.24,2.21.48,4.43.71,6.47h7.34V462.44h21.35v7.7c-4.38,0-8.49-.23-12.56.05-5.57.39-7.77,4.33-5,8.4,2.22,3.21,4.53,2.86,8.44,0,2-1.44,5-1.49,7.51-2.17a34.67,34.67,0,0,1,1.43,5.83c.25,3.1.07,6.24.07,9.57h7.39c0-8.64,0-17.1,0-25.55a11.28,11.28,0,0,1,.93-4.07c.65-1.56,1.62-3,2.87-5.23H894.68c-8.19-13.17-21.91-13.81-30.93-1.83a5.92,5.92,0,0,1-4.14,1.69C851.64,457,843.66,456.93,835,456.93Zm158.15,35V462l5,.51v29.16H1005V462.23c3.85-.05,7.84-1.45,9.46,2.95s-1.86,6.5-6,8.78c1.66,3.06,2.55,7.4,5,8.64,4.07,2,9.15,2.11,14.29,3.1.08,1.28.25,3.7.42,6.23h7V462.3h30.36c-.66,2.64-.58,5.56-2,6.83-.91.82-4-.72-6.1-1.3-.94-.27-1.79-.85-2.73-1.18-8.94-3.18-17.46,3.69-15.66,13a16.5,16.5,0,0,0,9.47,12.27c3.34-3.32,2.59-5.79-.46-8.51-2.66-2.37-3.11-5.54-.58-8.41,1.8-2.05,4-2.87,6.6.12-5.47,2.27-2.45,4.6-.42,7.16l12.14-5.5V492h7.28V462.36l5.22-.6c1.65-4.66-.95-4.86-4.2-4.85q-44.48.07-89,0c-1.29,0-2.58.2-3.67.29-2.13,4.5.84,5,3.89,5.13v6.18l-5,.87v6.2l5.45.85v15.6c1.53.1,2.5.22,3.48.21S991.32,492.12,993.11,492Zm-33.27-11.12c-2.81,1.85-3.14,4.22-.1,7.35a12.9,12.9,0,0,0,17.22.58c3.48-3.08,4.38-7,2.06-10.71-1.66-2.67-1.38-4.4-.34-7.08a10.46,10.46,0,0,0-6.22-13.82c-6.13-2.21-11.08.14-13.26,6.29,1.91,2.38,3.71,3.17,6.64,1,1.12-.84,3.73.3,5.66.54a34.45,34.45,0,0,1-2,5.12c-.41.73-1.84.82-2.5,1.49a13.65,13.65,0,0,0-1.73,2.42c2.91,2,5.66,2.94,6.43,4.71,1,2.32.54,6.18-2.82,6.2C966.19,484.91,963.51,482.6,959.84,480.85ZM986.31,449c2.46,4.69,5.52,7.07,9.56,6.68,3.81-.38,7.71-1.63,9.63-6.68Zm-132.6,6.56c2-2.28,4.24-3.79,4.06-5-.25-1.67-2.26-3.07-3.51-4.59-1.43,1.38-3.57,2.55-4,4.21C849.9,451.35,852,453.13,853.71,455.6Z" transform="translate(-812.66 -330.89)"/><path class="cls-1" d="M908.18,477.18c.37,2.78,2.7,3.06,5.44,1.56,3.66-2,5.09-9.23,3.36-16.28h-4.63C910.84,467.78,909.51,472.48,908.18,477.18Zm-21.7-20.28c-2-5.53-6-4.86-9.71-4.8-3,0-5.38,1.14-6.09,4.8Z" transform="translate(-812.66 -330.89)"/><path class="cls-1" d="M959.84,480.85c3.67,1.75,6.35,4.06,9,4,3.36,0,3.82-3.88,2.82-6.2-.77-1.77-3.52-2.69-6.43-4.71a13.65,13.65,0,0,1,1.73-2.42c.66-.67,2.09-.76,2.5-1.49a34.45,34.45,0,0,0,2-5.12c-1.93-.24-4.54-1.38-5.66-.54-2.93,2.21-4.73,1.42-6.64-1,2.18-6.14,7.13-8.49,13.26-6.28A10.46,10.46,0,0,1,978.68,471c-1,2.68-1.32,4.41.34,7.08,2.32,3.73,1.42,7.63-2.06,10.71a12.9,12.9,0,0,1-17.22-.58C956.7,485.07,957,482.7,959.84,480.85Z" transform="translate(-812.66 -330.89)"/><path class="cls-1" d="M986.31,449h19.19c-1.92,5-5.82,6.3-9.63,6.68C991.83,456.11,988.77,453.73,986.31,449Z" transform="translate(-812.66 -330.89)"/><path class="cls-1" d="M853.71,455.6c-1.71-2.47-3.81-4.25-3.49-5.33.47-1.66,2.61-2.83,4-4.21,1.25,1.52,3.26,2.92,3.51,4.59C858,451.81,855.68,453.32,853.71,455.6Z" transform="translate(-812.66 -330.89)"/><path class="cls-1" d="M908.18,477.18c1.33-4.7,2.66-9.4,4.17-14.72H917c1.73,7.05.3,14.28-3.36,16.28C910.88,480.24,908.55,480,908.18,477.18Z" transform="translate(-812.66 -330.89)"/><path class="cls-1" d="M886.48,456.9h-15.8c.71-3.66,3.08-4.75,6.09-4.8C880.46,452,884.53,451.37,886.48,456.9Z" transform="translate(-812.66 -330.89)"/><path class="cls-1" d="M1028,462.38c-.66,5.61,2.39,11.79-3,15.88-1.64,1.24-5.17,0-6.92-.1,1.56-5.89,2.8-10.6,4.17-15.78Z" transform="translate(-812.66 -330.89)"/></svg>