<svg xmlns="http://www.w3.org/2000/svg" viewBox="0 0 1359.94 176.95"><defs><style>.cls-1{fill:#552402;}.cls-2{fill:#ff7b20;}.cls-3{fill:#ff7f26;stroke:#fff;stroke-miterlimit:10;stroke-width:2px;}.cls-4{fill:#ff771c;}</style></defs><title>Asset 4</title><g id="Layer_2" data-name="Layer 2"><g id="Layer_1-2" data-name="Layer 1"><g id="logo"><polygon class="cls-1" points="0 100.21 57.52 158.54 57.52 41.88 0 100.21"/><polygon class="cls-2" points="62.26 43.55 105.2 87.1 105.2 0 62.26 43.55"/><polygon class="cls-1" points="157.18 43.55 114.23 0 114.23 87.1 157.18 43.55"/><polygon class="cls-1" points="220.02 100.21 162.5 41.88 162.5 158.54 220.02 100.21"/><polygon class="cls-3" points="106.93 133.88 73.29 112.21 72.25 91.35 106.98 113.73 106.93 133.88"/><polygon class="cls-1" points="116.58 134.11 149.94 112.01 150.72 91.13 116.27 113.96 116.58 134.11"/><polygon class="cls-1" points="117.42 169.77 150.36 144.96 150.81 124.07 116.73 147.42 117.42 169.77"/><polygon class="cls-3" points="105.13 169.77 72.18 144.96 71.73 124.07 105.82 147.42 105.13 169.77"/></g><path d="M435.29,172.24a12.46,12.46,0,0,0,6.33,1.79c3.61,0,5.72-1.91,5.72-4.67,0-2.55-1.46-4-5.15-5.43-4.47-1.59-7.22-3.9-7.22-7.75,0-4.26,3.52-7.43,8.84-7.43a12.45,12.45,0,0,1,6.05,1.34l-1,2.88a10.84,10.84,0,0,0-5.19-1.3c-3.73,0-5.15,2.23-5.15,4.1,0,2.56,1.66,3.81,5.43,5.27,4.63,1.79,7,4,7,8,0,4.22-3.12,7.87-9.57,7.87a14.06,14.06,0,0,1-7-1.75Z"/><path d="M482.11,163.72H471.48v9.86h11.85v3H468V149.2h14.77v3H471.48v8.64h10.63Z"/><path d="M500.08,149.56a37.25,37.25,0,0,1,6.78-.57c3.77,0,6.2.69,7.91,2.24a6.79,6.79,0,0,1,2.15,5.19,7.19,7.19,0,0,1-5.15,7v.12c2.1.73,3.36,2.68,4,5.52.89,3.81,1.54,6.45,2.11,7.5h-3.65a35.64,35.64,0,0,1-1.83-6.53c-.81-3.77-2.27-5.19-5.47-5.31h-3.33v11.84h-3.53ZM503.61,162h3.61c3.77,0,6.17-2.07,6.17-5.2,0-3.53-2.56-5.07-6.29-5.11a14.08,14.08,0,0,0-3.49.33Z"/><path d="M540.73,176.54l-8.92-27.34h3.81l4.26,13.47c1.18,3.69,2.19,7,2.92,10.22h.08c.77-3.16,1.91-6.61,3.13-10.18l4.62-13.51h3.78l-9.78,27.34Z"/><path d="M573.07,149.2v27.34h-3.53V149.2Z"/><path d="M610.51,175.65a17.45,17.45,0,0,1-7.22,1.3c-7.71,0-13.51-4.87-13.51-13.84,0-8.56,5.8-14.36,14.28-14.36a14.66,14.66,0,0,1,6.5,1.22l-.86,2.88a12.81,12.81,0,0,0-5.51-1.14c-6.42,0-10.68,4.1-10.68,11.28,0,6.7,3.86,11,10.51,11a14.12,14.12,0,0,0,5.76-1.14Z"/><path d="M641.27,163.72H630.64v9.86h11.84v3H627.11V149.2h14.77v3H630.64v8.64h10.63Z"/><path d="M683.54,149.2v27.34H680V149.2Z"/><path d="M701.88,176.54V149.2h3.85L714.5,163a77.68,77.68,0,0,1,4.9,8.89l.09,0c-.33-3.65-.41-7-.41-11.24V149.2h3.33v27.34h-3.57l-8.69-13.87a89.07,89.07,0,0,1-5.11-9.13l-.12,0c.2,3.45.28,6.73.28,11.28v11.68Z"/><path class="cls-4" d="M775.67,163.72H765v9.86h11.85v3H761.52V149.2h14.76v3H765v8.64h10.63Z"/><path class="cls-4" d="M808.62,176.54l-3.49-6c-1.42-2.31-2.31-3.82-3.17-5.4h-.08c-.77,1.58-1.54,3-3,5.44l-3.29,6h-4l8.36-13.83-8-13.51H796l3.61,6.41c1,1.78,1.79,3.16,2.52,4.62h.12c.77-1.62,1.46-2.88,2.47-4.62l3.74-6.41h4l-8.31,13.31,8.52,14Z"/><path class="cls-4" d="M846.92,175.65a17.52,17.52,0,0,1-7.22,1.3c-7.71,0-13.51-4.87-13.51-13.84,0-8.56,5.8-14.36,14.28-14.36A14.61,14.61,0,0,1,847,150l-.85,2.88a12.86,12.86,0,0,0-5.52-1.14c-6.41,0-10.67,4.1-10.67,11.28,0,6.7,3.85,11,10.51,11a14.12,14.12,0,0,0,5.76-1.14Z"/><path class="cls-4" d="M877.67,163.72H867v9.86h11.85v3H863.51V149.2h14.77v3H867v8.64h10.63Z"/><path class="cls-4" d="M895.64,149.2h3.53v24.38h11.69v3H895.64Z"/><path class="cls-4" d="M927,149.2h3.53v24.38h11.69v3H927Z"/><path class="cls-4" d="M972.44,163.72H961.81v9.86h11.85v3H958.28V149.2h14.77v3H961.81v8.64h10.63Z"/><path class="cls-4" d="M990.41,176.54V149.2h3.86L1003,163a77.86,77.86,0,0,1,4.91,8.89l.08,0c-.32-3.65-.41-7-.41-11.24V149.2h3.33v27.34h-3.57l-8.68-13.87a87.21,87.21,0,0,1-5.11-9.13l-.12,0c.2,3.45.28,6.73.28,11.28v11.68Z"/><path class="cls-4" d="M1048.39,175.65a17.52,17.52,0,0,1-7.22,1.3c-7.71,0-13.51-4.87-13.51-13.84,0-8.56,5.8-14.36,14.28-14.36a14.57,14.57,0,0,1,6.49,1.22l-.85,2.88a12.86,12.86,0,0,0-5.52-1.14c-6.41,0-10.67,4.1-10.67,11.28,0,6.7,3.85,11,10.51,11a14.12,14.12,0,0,0,5.76-1.14Z"/><path class="cls-4" d="M1079.14,163.72h-10.63v9.86h11.85v3H1065V149.2h14.77v3h-11.24v8.64h10.63Z"/><path class="cls-4" d="M1174.78,81.52a41.19,41.19,0,0,1,6.77-.53c3.49,0,6,.82,7.67,2.28a7.33,7.33,0,0,1,2.39,5.72,8,8,0,0,1-2.11,5.84c-1.86,2-4.9,3-8.35,3a12.28,12.28,0,0,1-2.84-.24v11h-3.53Zm3.53,13.19a12,12,0,0,0,2.92.28c4.26,0,6.85-2.07,6.85-5.84,0-3.61-2.55-5.36-6.45-5.36a14.74,14.74,0,0,0-3.32.29Z"/><path class="cls-4" d="M1210,88.91l3.86,11c.64,1.79,1.17,3.41,1.58,5h.12c.45-1.62,1-3.24,1.66-5l3.82-11h3.73L1217,108.54h-3.41l-7.46-19.63Z"/><path class="cls-4" d="M1244.56,83.27v5.64h5.11v2.71h-5.11v10.59c0,2.44.69,3.82,2.68,3.82a7.59,7.59,0,0,0,2.07-.25l.16,2.68a8.63,8.63,0,0,1-3.17.49,5,5,0,0,1-3.85-1.5c-1-1.06-1.38-2.8-1.38-5.11V91.62h-3V88.91h3V84.2Z"/><path class="cls-4" d="M1264.88,106.43a2.4,2.4,0,0,1,2.44-2.55,2.56,2.56,0,0,1,0,5.11A2.4,2.4,0,0,1,1264.88,106.43Z"/><path class="cls-4" d="M1286.43,81.2H1290v24.38h11.68v3h-15.21Z"/><path class="cls-4" d="M1321.76,83.27v5.64h5.12v2.71h-5.12v10.59c0,2.44.69,3.82,2.68,3.82a7.59,7.59,0,0,0,2.07-.25l.16,2.68a8.57,8.57,0,0,1-3.16.49,5,5,0,0,1-3.86-1.5c-1-1.06-1.38-2.8-1.38-5.11V91.62h-3V88.91h3V84.2Z"/><path class="cls-4" d="M1359.78,79.74v23.73c0,1.75,0,3.73.16,5.07h-3.2l-.17-3.4h-.08a7.25,7.25,0,0,1-6.69,3.85c-4.75,0-8.4-4-8.4-10,0-6.53,4-10.55,8.8-10.55a6.58,6.58,0,0,1,5.93,3h.08V79.74Zm-3.57,17.16a6.32,6.32,0,0,0-.16-1.5,5.26,5.26,0,0,0-5.16-4.14c-3.69,0-5.88,3.25-5.88,7.59,0,4,2,7.26,5.8,7.26a5.37,5.37,0,0,0,5.24-4.26,6.33,6.33,0,0,0,.16-1.54Z"/><path class="cls-2" d="M404.68,101.73c0-6-4.14-8.65-13.4-11.77l-4-1.38c-10.85-3.68-18.3-9-18.3-18.4,0-10.57,10.32-17,23.83-17a31.13,31.13,0,0,1,17.34,4.88l-.64,12h-6.38l-3-13.89,6.81,3v4.6c-5.21-4.42-9.15-6-14.79-6-8.29,0-14.57,3.59-14.57,10.48,0,5.8,4.36,9.2,12.13,11.77l4.15,1.38c14,4.69,19.46,10,19.46,18.67,0,10.85-10.53,17.47-25.1,17.47a45.62,45.62,0,0,1-20.64-4.87l.64-12.87h6.38L377.35,114l-6.92-2.58V107c6.6,4.14,10.22,6,17.45,6C398,113,404.68,108.9,404.68,101.73Z"/><path d="M246,64.83h9.81v3.54h-.89l-8.92-1Zm0,40.48,7.8-1h1.49l7.29,1v2.57H246Zm6.69-40.48h3.12L256.47,84v23.9h-3.79Zm.07,0h6.62l18.21,38.56h-2.53L292.3,64.83h3.93l-19.39,43.05h-3.65Zm33.9,40.48,8.92-1h1.48l9.66,1v2.57H286.65ZM293.11,88V64.83h6.77c-.23,6.49-.23,13.17-.23,19.92V88c0,6.62,0,13.3.23,19.92h-7C293.11,101.39,293.11,94.71,293.11,88Zm3.2-23.13h10.4V67.4l-9.66,1h-.74Z"/><path d="M316,105.31l7.43-1h1.49l8.18,1v2.57H316Zm22.15-40.8h4.46l17.09,43.37h-6.91L337.85,69.39h1.71L324.4,107.88h-3.49Zm-8.7,26.35h20.07l1.19,3H328.26Zm14.65,14.45,9.36-1H355l9.21,1v2.57H344.1Z"/><path d="M417.9,68.05l3.34-3.22-2.38,11.44H414.7l.59-11.44h40.59l.59,11.44h-4.16l-2.38-11.44,3.35,3.22Zm18.43,36.3,10.4,1v2.57H424.44v-2.57l10.4-1Zm-4.09-19.6c0-6.62,0-13.3-.22-19.92h7.13c-.22,6.49-.22,13.17-.22,19.92V88c0,6.62,0,13.3.22,19.92H432c.22-6.49.22-13.17.22-19.92Z"/><path d="M466.87,67.4V64.83h10.41v3.54h-.74Zm10.41,36.95v3.53H466.87v-2.57l9.67-1Zm-3.35-19.6c0-6.62,0-13.3-.22-19.92h7.14c-.23,6.49-.23,13.17-.23,19.92v2.44c0,7.39,0,14.07.23,20.69h-7.14c.22-6.49.22-13.17.22-19.92Zm23.94-19.92,3.34,3.22H477.28V64.83h26.53l.52,11.44h-4.16Zm-3.79,22.56h-16.8v-3h16.8Zm11.74,9.06-.52,11.43h-28v-3.21H502.7l-3.35,3.21,2.31-11.43ZM491.7,85.07l1.11-6.81h3.35V93.49h-3.35l-1.11-7.13Z"/><path d="M517.34,67.4V64.83h20.81V67.4l-9.66,1H527Zm11.15,36.95,9.66,1v2.57H517.34v-2.57l9.66-1Zm-4.09-19.6c0-6.62,0-13.3-.22-19.92h6.91c-.23,6.49-.23,13.17-.23,19.92v4.88c0,5,0,11.63.23,18.25h-6.91c.22-6.49.22-13.17.22-19.92Zm3.19,7.58,26-27.5h4.46L527.59,96.51Zm13.75-12.4,18,27.95h-7l-14.86-24Zm2.75,25.38,8.92-1h1.12l8.92,1v2.57h-19Zm.82-37.91V64.83H562V67.4l-8.18,1-1.49.32Z"/><path d="M595.3,67.4V64.83h10.4v3.54H605Zm10.4,36.95v3.53H595.3v-2.57l9.66-1Zm-3.34-19.6c0-6.62,0-13.3-.22-19.92h7.13c-.22,6.49-.22,13.17-.22,19.92v2.44c0,7.39,0,14.07.22,20.69h-7.13c.22-6.49.22-13.17.22-19.92Zm23.93-19.92,3.35,3.22H605.7V64.83h26.54l.52,11.44H628.6ZM622.5,87.39H605.7v-3h16.8Zm11.75,9.06-.52,11.43h-28v-3.21h25.42l-3.34,3.21,2.3-11.43ZM620.12,85.07l1.12-6.81h3.34V93.49h-3.34l-1.12-7.13Z"/><path d="M645.39,105.31l7.81-1h1.48l8.55,1v2.57H645.39Zm4.68-38.49,4.61,1.55-8.92-1V64.83h11.15l30.85,36.69v6.81h-2.38Zm1.64-2,3.72,2.57v40.48h-3.72Zm24.53,0h17.83V67.4l-7.43,1h-1.48l-8.92-1Zm7.8,0h3.72v43.5L684,105.12Z"/><path d="M746,105.06a38.28,38.28,0,0,1-16.36,3.79c-14.86,0-25-9.58-25-22.49S714.88,63.87,730,63.87c6.17,0,10.78,1,14.94,3.08l.3,9.32h-4.54l-1.85-9.51,4.6,1.29v3.66a19.56,19.56,0,0,0-12.85-4.63c-10.41,0-18.07,7-18.07,19.28s7,19.21,18.59,19.21a27.32,27.32,0,0,0,11.59-2.63l-3.34,3v-3.73c0-4.88-.08-9.9-.23-14.78h7.14c-.15,4.82-.22,9.77-.22,14.78ZM731.38,90V87.45h19.33V90l-8.18.64h-1.48Z"/><path d="M760,67.4V64.83h20.81V67.4l-9.67,1h-1.48Zm11.14,36.95,9.67,1v2.57H760v-2.57l9.66-1Zm-4.08-19.6c0-6.62,0-13.3-.23-19.92H774c-.22,6.49-.22,13.17-.22,19.92V88c0,6.62,0,13.3.22,19.92h-7.14c.23-6.49.23-13.17.23-19.92Z"/><path d="M792.7,105.31l7.8-1H802l8.54,1v2.57H792.7Zm4.68-38.49L802,68.37l-8.92-1V64.83h11.15l30.84,36.69v6.81h-2.38Zm1.63-2,3.72,2.57v40.48H799Zm24.53,0h17.84V67.4l-7.43,1h-1.49l-8.92-1Zm7.81,0h3.71v43.5l-3.71-3.21Z"/><path d="M852.53,67.4V64.83h10.4v3.54h-.74Zm10.4,36.95v3.53h-10.4v-2.57l9.66-1Zm-3.34-19.6c0-6.62,0-13.3-.23-19.92h7.14c-.22,6.49-.22,13.17-.22,19.92v2.44c0,7.39,0,14.07.22,20.69h-7.14c.23-6.49.23-13.17.23-19.92Zm23.93-19.92,3.34,3.22H862.93V64.83h26.53L890,76.27h-4.17Zm-3.79,22.56h-16.8v-3h16.8Zm11.74,9.06L891,107.88h-28v-3.21h25.42L885,107.88l2.3-11.43ZM877.35,85.07l1.11-6.81h3.35V93.49h-3.35l-1.11-7.13Z"/><path d="M903,67.4V64.83h10.4v3.54h-.74Zm10.4,36.95v3.53H903v-2.57l9.66-1Zm-3.34-19.6c0-6.62,0-13.3-.22-19.92H917c-.22,6.49-.22,13.17-.22,19.92v2.44c0,7.39,0,14.07.22,20.69h-7.13c.22-6.49.22-13.17.22-19.92ZM934,64.83l3.35,3.22H913.39V64.83h26.54l.52,11.44h-4.16Zm-3.79,22.56h-16.8v-3h16.8Zm11.75,9.06-.53,11.43h-28v-3.21h25.42l-3.34,3.21,2.3-11.43ZM927.81,85.07l1.12-6.81h3.34V93.49h-3.34l-1.12-7.13Z"/><path d="M953.45,67.4V64.83h10.41v3.54h-.75Zm11.15,36.95,9.66,1v2.57H953.45v-2.57l9.66-1Zm-4.09-19.6c0-6.62,0-13.3-.22-19.92h7.14c-.23,6.68-.23,13-.23,20.56v1.93c0,7.26,0,13.94.23,20.56h-7.14c.22-6.49.22-13.17.22-19.92Zm3.35.32h9.29c8,0,11.89-3.72,11.89-8.93,0-5.4-3.34-8.35-11.07-8.35H963.86v-3H974c11.37,0,18.06,4.18,18.06,11.31,0,5.46-5,10.41-14.71,11.12l.22-.52c5.35.45,8.62,2.57,10.63,8.36l3.64,10.66-2.31-1.22,7.66.77v2.57a19.41,19.41,0,0,1-5.35.65c-4.61,0-6.62-1-7.51-4l-3-10.47c-1.48-5.21-4.23-6.11-10.4-6.11h-7.06Z"/><path d="M1007.26,67.4V64.83h20.81V67.4l-9.66,1h-1.49Zm11.15,36.95,9.66,1v2.57h-20.81v-2.57l9.66-1Zm-4.09-19.6c0-6.62,0-13.3-.22-19.92h7.13C1021,71.32,1021,78,1021,84.75V88c0,6.62,0,13.3.22,19.92h-7.13c.22-6.49.22-13.17.22-19.92Z"/><path d="M1040,105.31l7.81-1h1.48l8.55,1v2.57H1040Zm4.68-38.49,4.61,1.55-8.92-1V64.83h11.15l30.85,36.69v6.81H1080Zm1.64-2L1050,67.4v40.48h-3.72Zm24.53,0h17.84V67.4l-7.44,1h-1.48l-8.92-1Zm7.8,0h3.72v43.5l-3.72-3.21Z"/><path d="M1140.6,105.06a38.28,38.28,0,0,1-16.36,3.79c-14.86,0-25-9.58-25-22.49s10.18-22.49,25.27-22.49c6.17,0,10.78,1,14.94,3.08l.3,9.32h-4.54l-1.85-9.51,4.6,1.29v3.66a19.56,19.56,0,0,0-12.85-4.63c-10.41,0-18.07,7-18.07,19.28s7,19.21,18.59,19.21a27.32,27.32,0,0,0,11.59-2.63l-3.34,3v-3.73c0-4.88-.08-9.9-.23-14.78h7.14c-.15,4.82-.22,9.77-.22,14.78ZM1126,90V87.45h19.33V90l-8.18.64h-1.48Z"/></g></g></svg>