<svg xmlns="http://www.w3.org/2000/svg" viewBox="0 0 490.63 450"><defs><style>.cls-1{fill:#606060;}</style></defs><title>cpclgrey</title><g id="Layer_2" data-name="Layer 2"><g id="Layer_1-2" data-name="Layer 1"><path class="cls-1" d="M258.47,0c3.92.49,7.83,1,11.76,1.47C325.1,7.63,371.55,30.83,409.72,70.63c24.86,25.92,42.09,56.32,52.46,90.63.81,2.69,1.86,3.59,4.58,3.54,7.86-.15,15.72-.05,23.87-.05V285.43h-7.92c-5.5,0-11,.12-16.49,0-2.27-.05-3.23.7-3.88,2.93a219.37,219.37,0,0,1-38,74.3c-32.48,41.5-74.34,68.68-125.52,81.16-10.93,2.66-22.27,3.66-33.41,5.46A17.94,17.94,0,0,0,263,450h-34.5c-5.13-.75-10.26-1.54-15.4-2.24a213.17,213.17,0,0,1-74.6-24.66q-81.63-45-109.13-134.17c-.83-2.68-1.88-3.56-4.59-3.5-6.87.15-13.75,0-20.62,0-1.34,0-2.67-.14-4.13-.23V164.68H7.39c5.87,0,11.75,0,17.62.1,2.3.05,3.36-.54,4.17-3C55.11,81.82,108.48,30.08,189.37,7.32c13-3.67,26.91-4.44,40.4-6.57,1.08-.17,2.14-.5,3.2-.75ZM11.75,273.61H479.37V176.48H11.75ZM450.41,164.46C429.82,88.34,348.37,3,226.82,12.76,135.4,20.1,62.22,87.21,41.2,164.46Zm-.05,121.16H41.08C61.13,360.5,140,443.8,257.73,438,353.73,433.25,429.27,363.75,450.36,285.62Z"/><path class="cls-1" d="M191.71,186.05c16.81,0,32.91-.37,49,.24,4.79.18,9.82,2.52,14.1,5s5.09,7.12,4.06,11.91c-2.87,13.32-12,20.46-24.52,23.08-9.06,1.91-18.45,2.29-27.72,3.11-2.29.21-3.43.54-4.06,3.1-2.56,10.45-5.45,20.82-8.26,31.39H171.2C178.13,237.57,185,211.53,191.71,186.05Zm13.2,37.69c3.81-.35,7.12-.58,10.41-1a22.08,22.08,0,0,0,19-17.07c1.36-6.24-1.05-12.19-6.36-13.48-4.26-1-8.86-.77-13.32-.91-.53,0-1.42,1-1.6,1.64C210.35,203,207.72,213,204.91,223.74Z"/><path class="cls-1" d="M364.74,188.88c-2,3.59-3.65,6.91-5.69,10-.46.68-3,1-3.37.55-11.63-13.91-35.77-10.89-48.87-1.9-12.54,8.61-19.65,20.64-21.27,35.7-1.48,13.71,8.71,24.36,23.26,25.68,12.59,1.15,24.14-1.68,35.24-7.26.65-.33,1.33-.61,2-.89.09,0,.24,0,.36.09.18,3.39-4.11,9.79-7.28,10.81-9.32,3-19,4.05-28.69,4.14-11,.09-21.87-1.08-32.06-5.69-10.83-4.9-20-13.25-18.31-28.54a43,43,0,0,1,7.6-19.62C276,199.61,288,192.36,302,188.17c19.74-5.91,39.59-6.86,59.47-.58C362.39,187.88,363.28,188.3,364.74,188.88Z"/><path class="cls-1" d="M155.41,250.45c-2.53,8.25-7.48,12-15.34,13.21-18.1,2.88-35.95,3.73-53.25-3.55-9.55-4-16.77-10.52-18.52-21.27-1.44-8.77,1.62-16.79,6-24.18,8.83-15,22.74-23,39-27.39,18.61-5,37.31-5.74,55.93.21q1.25.39,2.46.87a7.86,7.86,0,0,1,1.15.75c-1.79,3.25-3.55,6.47-5.34,9.69-1,1.82-2.42,2.3-3.82.6-13.51-16.47-45.32-10.1-58.81,7.22C98.77,214.44,94.7,223,94,233.11c-.9,12.85,6,22.19,18.6,24.93,13.78,3,26.64,0,39-6C152.7,251.48,153.85,251.09,155.41,250.45Z"/><path class="cls-1" d="M364.23,263.66c6.92-26.23,13.74-52.09,20.55-77.94h23.11c-6.1,23.17-12.18,46.31-18.51,70.35l35.69-1.62-2.21,9.21Z"/><path class="cls-1" d="M434.61,152.73H56.5a198.94,198.94,0,0,1,49.62-74c32.65-30.84,71.39-49.52,116-54.43C335.64,11.79,412.61,89.33,434.61,152.73Z"/><path class="cls-1" d="M435,297.33c-24.37,67.22-96.94,133.93-198,130-84.78-3.29-154.79-60-180.44-130Z"/></g></g></svg>