<svg xmlns="http://www.w3.org/2000/svg" viewBox="0 0 245.78 163.38"><defs><style>.cls-1{fill:#606060;}</style></defs><title>gailgrey</title><g id="Layer_2" data-name="Layer 2"><g id="Layer_1-2" data-name="Layer 1"><path class="cls-1" d="M115.31,0c36.2.12,63.45,5.76,88.52,20.08,11.39,6.51,21.44,14.66,29.28,25.29,16.92,22.91,16.94,50-.27,72.65-14,18.47-33.19,29.66-54.92,36.35-46.54,14.35-92.08,12.29-135.3-11.4a102.27,102.27,0,0,1-26.56-21.55c-21.51-24.15-21.24-55.21-.22-79.9C31.4,23.24,52,13,74.58,6.5,90.34,2,106.48-.11,115.31,0Zm13.56,157.21c6.54-.86,19-1.76,31.22-4.25,23-4.72,44.19-13.83,61.14-30.77,24.53-24.49,24.77-56.82,0-81a106,106,0,0,0-25.78-18.55C159,4.22,120.49,1.92,81.15,11.13c-23,5.38-43.67,15.29-59.73,33.22C1.79,66.26,1.17,93.78,19.62,116.64c7.22,8.94,16.14,15.85,26.08,21.46C69.67,151.64,95.75,156.64,128.87,157.21Z"/><path class="cls-1" d="M97.44,120.85C80,115.56,64.23,109.24,53.12,95c-5.76-7.37-9.73-15.74-8.55-25.35,2-16,13-26.42,32-29.24,10.12-1.5,20.56-1,30.86-1.15a4.23,4.23,0,0,1,3.18,1.76c5.83,10.08,11.51,20.26,17.2,30.42.8,1.42,1.5,2.91,2.61,5.08-2.32.17-4.06.4-5.8.4-9.83,0-19.65,0-29.47,0a35.79,35.79,0,0,0-6.47.44c-11.42,2.17-15.72,12.29-9,21.73a33.74,33.74,0,0,0,7.88,7.52C92.7,110.39,94.87,113,97.44,120.85Z"/><path class="cls-1" d="M97.24,111.71c3.44.42,6.75,1.4,9.94,1.1,4.7-.45,9.84-.81,13.84-3,6.94-3.78,6.36-12.07-.88-15.23a31.82,31.82,0,0,0-13.5-2.89c-6.22.26-8-3.07-9.52-8.31,1.9-.1,3.5-.25,5.09-.26,24.16,0,48.33,0,72.49-.21,3.63,0,5.71,1,7.46,4.26,5.46,10.11,11.27,20,16.91,30,.71,1.26,1.27,2.6,2.36,4.87-9,0-17.21.13-25.42-.15-1.2,0-2.64-1.83-3.43-3.13-4.6-7.54-9-15.2-13.55-22.75a7.77,7.77,0,0,0-4.44-3.43,5.75,5.75,0,0,0,0,1.76c3.58,10.36,1.14,17.28-8.61,22.5-11.56,6.19-24.11,7.25-36.93,5.94C101,122,99.76,120.7,97.24,111.71Z"/><path class="cls-1" d="M193.22,76.53c-9.08,0-18.14,0-27.19-.1-.86,0-2-1.18-2.51-2.09C157.2,63.41,151,52.43,144.74,41.44a8.1,8.1,0,0,1-.32-2c9.26,0,18.32-.06,27.38.08a4,4,0,0,1,2.59,2C180.72,52.57,187,63.74,193.2,74.9,193.34,75.15,193.22,75.53,193.22,76.53Z"/><path class="cls-1" d="M113.51,39.34c8.43,0,15.56-.08,22.67.08a4.37,4.37,0,0,1,3.16,1.83c6.27,11.29,12.39,22.67,19.13,35.12-8.27,0-15.6,0-22.93-.08a3.37,3.37,0,0,1-2.25-1.65C126.86,63.27,120.5,51.85,113.51,39.34Z"/><path class="cls-1" d="M90.06,21.71l21.16-2.95c.09-.46.18-.91.26-1.37L106.16,16c1.66-4.09,4.68-6,7.3-3.67,7.22,6.34,15.94,6.25,24.65,6.84,6,.42,12,1.37,16.92,1.95-1.06,4-2.29,7.07-2.65,10.29-.39,3.51-1.66,4.85-5.37,3.64-.09-.49-.19-1.11-.32-1.72q-.56-2.72-1.13-5.41A43.78,43.78,0,0,1,142,31.19c-2.06,1.5-4.12,2.18-5.55-.87-.47-1-.78-2.54-1.57-2.87a6.07,6.07,0,0,0-4.12-.07,3.08,3.08,0,0,0-1.26,2.76c.45,1,1.77,1.66,2.85,2.19a10.41,10.41,0,0,0,2.73.52l.34,1.49c-1.56.43-3.42,1.61-4.62,1.12-2.41-1-5-2.47-6.42-4.52-.76-1.12.25-5,1.47-5.58a21.46,21.46,0,0,1,9.24-2c3.69,0,7.38.91,11.06,1.44l.24-2.59c-8.1-.28-16.19-.65-24.29-.71-.65,0-1.8,2.08-1.9,3.26-.26,3.28-.09,6.6-.09,10.33h-5.22c-2.93-4.12,1.85-10.37-4.46-14.64-.14,2.07-.26,2.83-.23,3.59.34,8.11-6.94,13.44-14.35,10.15a7.34,7.34,0,0,1-3.78-5c-.13-1.3,2.29-3.66,3.94-4.08,1.82-.46,4.06.76,6.12,1.25L101.78,28l-4.35.54-.33,1.28c1.44.43,3.12,1.55,4.24,1.13a6.14,6.14,0,0,0,3.39-3.59c.26-.92-1.27-3.1-2.4-3.46-2.07-.66-4.44-.48-6.68-.5-1.77,0-3.54.19-5.32.3Z"/><path class="cls-1" d="M109.47,140.93c-.73,6-3.09,8.27-8.18,8.51-5.92.27-10.57-2.64-11.57-7.28-.92-4.25,1-7,4.73-8.79,5.18-2.42,10.6-.88,14.56,5.07-2.83-.44-4.69-1-6.54-.95-2.21,0-4.71.08-6.47,1.14-.76.46-.71,4.36.24,5.13,1.6,1.3,4.22,1.35,6.4,1.93l.12-1.29-3.55-3c1.54-.45,3.07-1.23,4.61-1.27A32.19,32.19,0,0,1,109.47,140.93Z"/><path class="cls-1" d="M128.85,150.76c-2.93-1.11-5.87-3.08-8.8-3.08s-5.85,2-8.78,3.09l-1-1.06c1.89-4.71,3.34-9.69,6-14,.73-1.18,6.55-1.21,7.29,0,2.69,4.25,4.22,9.23,6.18,13.94Z"/><path class="cls-1" d="M140,133.72c5.2-1.85,5.2-1.85,7.69,9.17a3.73,3.73,0,0,0,.82.51c1.88.63,3.76,1.24,5.65,1.85A35.1,35.1,0,0,1,149,148c-1.68.58-3.57.58-6.2.95C141.88,143.89,141,139,140,133.72Z"/><path class="cls-1" d="M137.85,148.85c-3.89,1.79-5.88,1.09-5.92-3.3,0-3-.72-5.92-.55-8.85.07-1.07,1.63-2.5,2.79-2.86.63-.2,2.56,1.4,2.69,2.35C137.44,140.4,137.57,144.66,137.85,148.85Z"/></g></g></svg>