<svg xmlns="http://www.w3.org/2000/svg" viewBox="0 0 179.27 226.08"><defs><style>.cls-1{fill:#606060;}</style></defs><title>hpgrey</title><g id="Layer_2" data-name="Layer 2"><g id="Layer_1-2" data-name="Layer 1"><path class="cls-1" d="M0,224.25V0h178.5c0,7.37,0,14.74,0,22.11q0,98.73,0,197.48c0,2.52.47,4.8-3.58,4.8Q87.52,224.2,0,224.25ZM3,221.94H7.52q82.13,0,164.24.08c3.54,0,4.63-.87,4.63-4.53q-.16-105.18-.09-210.36c0-1.33-.11-2.66-.17-4.1H3Z"/><path class="cls-1" d="M0,224.25q87.5,0,175,.14c4.05,0,3.58-2.28,3.58-4.8q0-98.75,0-197.48c0-7.37,0-14.74,0-22.11a16.32,16.32,0,0,1,.72,3.38q0,101.81,0,203.62v18.75q-88.13,0-176.25-.08C2.08,225.67-.22,227.22,0,224.25Z"/><path class="cls-1" d="M17.67,133.19a71.77,71.77,0,1,1,71.77,71.88A71.69,71.69,0,0,1,17.67,133.19ZM89.5,174.65c3.24-15.82,10.82-28.82,23.62-38.54s27.65-13.37,43.65-11.92c1.86-29.19-33.88-60-68.63-59.55-33.22.47-68.43,32.1-65.94,59.55,15.86-1.45,30.5,2.06,43.36,11.7S86.17,158.7,89.5,174.65Zm-64-18.28C29,177.32,62,202.8,83.35,201.06,79,172.73,50.15,150.82,25.51,156.37Zm128.15-.06c-26.2-5.28-53.58,17.3-58.13,44.71C116.35,203.32,147.36,179.58,153.66,156.31ZM89.59,189.43c-.44-1.57-.71-2.38-.9-3.21C82,156.36,55.5,136.63,24.85,138.53c-3,.19-4.24,1-3,3.79,5.74.49,11.41.45,16.87,1.51,25.89,5.06,45.34,27.36,47.46,54,.3,3.78,1.74,5.18,4.73,3.79,1.13-.52,1.78-2.93,1.94-4.55,3-30.34,28.47-56.06,61.59-54.29,1.54.09,3.42.31,3-1.95-.18-.89-1.85-2.06-2.91-2.14-18.34-1.37-34.21,4.34-47.42,17.15C97.76,164.87,92.15,175.94,89.59,189.43Z"/><path class="cls-1" d="M9.36,14H169.51v30.9H9.36ZM122.15,25.85h10.26v.91a18.1,18.1,0,0,1-3.61,0c-3-.65-4.54.77-5,3.53s1.26,5.39,3.76,5.46c.89,0,1.79-.76,3.42-1.51-4.85-1.52-5.13-2.15-3-5.05l2.79,3.39,1.34-3.38.9.47a16.61,16.61,0,0,0,.06,3.6,8.82,8.82,0,0,0,1.53,2.43,7,7,0,0,0,1.14-2.34c.15-2.46.06-4.94.06-7.84l5.06.48,0,1-4.29,1.62c1.43,1.86,2.34,3.63,3.77,4.67.91.67,2.71,0,3.93.43s1.93,1.48,3.71,2.94V25.87h5.38c-.38,1.38-1.36,1.81-1.86,2.56-.68,1-1.5,2.39-1.32,3.47A3.36,3.36,0,0,0,152.79,34c1.08,0,2.2-1.08,3.22-1.81a33.67,33.67,0,0,0,2.75-2.6,15.16,15.16,0,0,0,.21,2.85c.43,1.09,1,2.14,1.47,3.2a17,17,0,0,0,1.07-3.15c.41-2.88.64-5.78,1-9.2-.65,0-1.94-.2-3.23-.2-7.37,0-14.74-.1-22.11,0-3.67.06-6.67-.34-9.61-3.31-4.75-4.79-8.57-3.31-9.89,3.87-1-1.14-1.77-2-2.53-2.73a33.45,33.45,0,0,0-3.72-3.53c-.35-.27-1.39.39-2.12.62a6.33,6.33,0,0,0,1,1.65c1.12.93,2.36,1.71,3.56,2.55a26.3,26.3,0,0,1-7.14.86c-3.32.18-6.46.3-7.92-3.66a3.81,3.81,0,0,0-2.25-1.85c-.73-.24-1.69.25-2.55.41a10.75,10.75,0,0,0,1.32,1.79c1,.9,2.15,1.68,3.88,3l-7.58.6c.61,6.35,3.7,10.26,9.9,12.36V25.81h5.23c-1,1.37-3.26,3.08-3.14,4.61.15,2,2.21,3.8,3.55,5.86l-1.7,2.87,3.58-.71,4.54,1,.32-1.15-2.76-2.42c.55-1.86,1-3.27,1.38-4.67-1.07.44-2.13,1.22-3.2,1.24s-2-.78-3.06-1.21A14.32,14.32,0,0,1,108.1,29a27,27,0,0,1,2.78-1.73c.94-.62,1.83-1.31,3.56-2.57,0,4-.09,6.6.06,9.2,0,.61.9,1.16,1.38,1.74.37-.56,1-1.09,1.07-1.67.14-2.12,0-4.26.15-6.37.06-.74.8-1.42,1.23-2.14l1.1.36c0,2.59-.11,5.19.07,7.76.06.73,1,1.39,1.49,2.08.39-.67,1.07-1.33,1.11-2C122.24,31.13,122.15,28.63,122.15,25.85Zm-96.28-.13c-2.94,1.25-4.95,6-3.62,8.61,1.13,2.17,3.38,2.84,6.12,1.41-1.2-.62-2.43-.89-2.93-1.64-.34-.51.34-1.7.56-2.59l3.48,2.95c.39-.94,1.45-2.41,1.11-2.89a15.54,15.54,0,0,0-3.33-2.89c4.26-5.26,10.45-2.53,16.12-2.75a35.36,35.36,0,0,1-7.24.93c-2.16.07-4.39.44-4.18,3,.11,1.33,1.88,3.59,2.78,3.54,1.5-.1,2.92-1.71,3.83-2.32l4.7,4.14L42.19,37l3.74.94-.08,1.17c-1.49-.24-3-.49-4.47-.72a6.37,6.37,0,0,0-2-.19c-.23,0-.34.82-.5,1.27,2.37.75,4.76,2.13,7.11,2.07s3.34-2.31,2.44-4.78c-.41-1.14-.93-2.24-1.38-3.36s-.6-2.71-1.2-2.87c-.93-.23-2.13.59-3.47,1.06-1.68-1.75-.92-2.5,1.46-3,1.15-.26,2-1.54,3.19-2a12.2,12.2,0,0,1,4.34-.82c.52,0,1,1.19,1.54,1.84-1.13.43-2.27.85-3.38,1.31-.21.08-.37.3-1.36,1.17a75.08,75.08,0,0,0,5.62,5.54c.4.33,1.85-.63,2.82-1-.75-.54-1.48-1.1-2.24-1.62-.53-.38-1.1-.71-1.89-1.21,2.78-2.14,4.53-2,6.08,1,.6,1.15,2.14,1.93,3.42,2.54.33.16,1.27-.93,1.52-1.12L61,30.46l4.17-1.64a27.92,27.92,0,0,0,.06,4.67,7.3,7.3,0,0,0,1.38,2.16,7.31,7.31,0,0,0,1.17-2.31c.17-1.86-.08-3.75.12-5.61.09-.8.85-1.53,1.3-2.3l1.12.45c0,2.35-.12,4.71,0,7.05a8.82,8.82,0,0,0,1.2,2.7c.44-.86,1.21-1.69,1.27-2.57.18-2.42.06-4.87.06-7.12H82c-1.67.83-3.4.73-5,1.11a3.4,3.4,0,0,0,0,6.57c3.23.83,4-1.69,4.64-4.23,1.82,1.92-.8,5.51,3,6.53.46-4.53.86-8.45,1.31-12.86H39.53c-5.47,0-11,.91-15.29-4.3-1-1.23-4.89-1.57-6.27-.62s-2.81,5.13-2,6c2.61,3.06,1.23,6.32,1.76,9.43.13.74.95,1.37,1.46,2.06.36-.68,1-1.35,1.05-2,.13-2.58.05-5.17.05-7.9Z"/><path class="cls-1" d="M54.6,84H70.87v6.73C65.77,92.36,69,96.36,68,99.58H79.36c-1-3.06,2.43-6.77-2.75-8.91-.9-.37-.4-4.12-.56-6.56H92v6.67L91,90.49c-.63,1.49-1.75,3-1.81,4.48-.22,5.74-.22,11.5,0,17.24.06,1.53,1.2,3,1.85,4.52l1-.33v6.82H76.14c.85-2.8-2.19-6,2.44-8,1-.41.68-4.35.45-6.62,0-.53-2.16-1.11-3.36-1.21-2.33-.19-4.69-.06-7.75-.06,1.15,3.35-2.26,7,2.79,9.23.92.41.38,4.15.53,6.63H55c1-2.64-2.37-6.06,2.46-7.7.48-.16.68-1.75.69-2.67.06-6.13,0-12.25,0-18.38,0-1.48-.46-2.26-1.9-3.36S55.16,86.78,54.6,84Z"/><path class="cls-1" d="M98.13,84.14c7.52,0,14.5-.45,21.4.13,6,.51,10.13,6.61,9.76,12.74a12.26,12.26,0,0,1-11.19,11.6c-2.09.14-4.2,0-6.84,0,.71,2.91-2.07,6,2.5,7.77,1,.37.54,4.27.81,7H98.35c.68-3.12-2.2-6.72,2.68-8.28.38-.12.35-1.84.35-2.82,0-5.37.11-10.74,0-16.1-.06-1.93,1.21-4.45-2.39-5.35C98.19,90.68,98.4,86.64,98.13,84.14Zm16,7.22c-2.17-.42-3.44.76-2.82,3.09s-2.41,6.17,2.44,6.76c3.47.43,6.19-1.95,6.19-4.94C119.9,93.54,117.58,91.47,114.1,91.36Z"/><path class="cls-1" d="M126.8,22.88a24.3,24.3,0,0,1-4.68-.11c-.51-.1-.76-1.47-1.13-2.26.71-.3,1.59-1,2.08-.82a29.71,29.71,0,0,1,4,2.44Z"/><path class="cls-1" d="M99.61,28l-2.19,2.54c-.53-.91-1.42-1.8-1.47-2.74,0-.7,1-1.45,1.56-2.18Z"/><path class="cls-1" d="M145.51,24.81c-.25,2.43,0,4.21-.71,5.39-.48.78-2.37.7-4,1.11Z"/><path class="cls-1" d="M65.28,25.84a48.43,48.43,0,0,1-6.8,2.34c-.93.18-2.1-.84-3.16-1.32l.47-1Z"/><path class="cls-1" d="M25.15,22.94a24.2,24.2,0,0,1-4.67-.1c-.6-.12-1-1.36-1.45-2.09.77-.37,1.74-1.23,2.29-1a24.81,24.81,0,0,1,4,2.44Z"/></g></g></svg>