<svg id="svg3530" xmlns="http://www.w3.org/2000/svg" viewBox="0 0 299.75 207.43"><defs><style>.cls-1,.cls-2{fill:#606060;}.cls-1{fill-rule:evenodd;}</style></defs><title>reliancsgrey</title><g id="layer1"><g id="g3475"><path id="path262" class="cls-1" d="M168.21,88.17a12,12,0,0,1-11.69,1.24,5.52,5.52,0,0,1-1.89-1.36c-.78-.93-20.53-22.2-20.53-22.2l-.06-.07A16.68,16.68,0,0,0,150.28,59a14.94,14.94,0,0,0,.07-16.56c-3.9-5.27-11.5-7-17.87-6.2-11,1.49-19,10.86-21.44,20.66-2.53,11.16-.71,21.7,3.25,31.62a26.86,26.86,0,0,0,3.64,6.14C106.3,89.79,96,80.86,90.64,68.88a48.13,48.13,0,0,1,1.24-42.29c5.58-10.11,15.46-19.48,27.67-23.45,12.8-5,30-4,42.49,2.73C177.18,13.07,188.61,31,188.68,47a48.42,48.42,0,0,1-20.47,41.18" transform="translate(0 0)"/><path id="path264" class="cls-1" d="M125.72,94.44c-5.65-5.83-10.2-13.4-6.75-21.27,3-6,5.78-12.16,7.08-19.11.52,7.26,5.13,13.71,7.34,20.66A16.53,16.53,0,0,1,132.94,85a30.07,30.07,0,0,1-6.76,9.92l-.46-.49Z" transform="translate(0 0)"/><path id="path266" class="cls-1" d="M54.44,160h-15q-5-7.5-9-12.94T21.59,135.8H15.88v16.93a6,6,0,0,0,.43,2.31,3,3,0,0,0,1.85,1.51,11.72,11.72,0,0,0,2.48.49q1.77.22,3,.27V160H0v-2.67c.63-.06,1.55-.14,2.74-.27a9.51,9.51,0,0,0,2.5-.49A3.31,3.31,0,0,0,7,155.13a4.79,4.79,0,0,0,.54-2.4V114.14a6.25,6.25,0,0,0-.4-2.33,2.82,2.82,0,0,0-1.85-1.55,16.17,16.17,0,0,0-2.56-.61A24.82,24.82,0,0,0,0,109.29v-2.67H25.8a30.66,30.66,0,0,1,6.66.69,18.78,18.78,0,0,1,5.63,2.23,11.63,11.63,0,0,1,3.9,3.93,11.2,11.2,0,0,1,1.47,5.86,14.05,14.05,0,0,1-1,5.45,11.49,11.49,0,0,1-2.9,4.1,17.42,17.42,0,0,1-4.27,2.79,32.21,32.21,0,0,1-5.47,2c2.76,3.49,5,6.42,6.87,8.81s4.06,5.27,6.72,8.67a17.88,17.88,0,0,0,3.14,3.34,16.62,16.62,0,0,0,2.77,1.74,9.75,9.75,0,0,0,2.56.76,22.29,22.29,0,0,0,2.56.3V160ZM33.72,120.19a10.22,10.22,0,0,0-2.92-7.69c-1.93-1.89-4.69-2.84-8.22-2.84h-6.7v22.9H21a12.79,12.79,0,0,0,9.05-3.33,11.64,11.64,0,0,0,3.63-9Zm56.36,31.06a19.25,19.25,0,0,1-6.53,7.07A17,17,0,0,1,74.14,161a19.83,19.83,0,0,1-8.22-1.58,15.8,15.8,0,0,1-5.8-4.28,18.05,18.05,0,0,1-3.42-6.32,25.85,25.85,0,0,1-1.11-7.64,21.83,21.83,0,0,1,1.19-7.08,19.77,19.77,0,0,1,3.54-6.26,16.78,16.78,0,0,1,13-6,18.51,18.51,0,0,1,7.28,1.29,12.74,12.74,0,0,1,4.93,3.49,14.1,14.1,0,0,1,2.7,5,21,21,0,0,1,.88,6.2v2.49H63.42a27.47,27.47,0,0,0,.73,6.61,15.22,15.22,0,0,0,2.31,5.24,10.83,10.83,0,0,0,4,3.44,12.92,12.92,0,0,0,5.91,1.26,11.33,11.33,0,0,0,6.05-1.57,15.7,15.7,0,0,0,4.9-5.62l2.75,1.62Zm-8.69-14.13A28.22,28.22,0,0,0,81,132.6a13.66,13.66,0,0,0-1.2-4,7.78,7.78,0,0,0-2.49-2.82,6.93,6.93,0,0,0-4.06-1.09A8.59,8.59,0,0,0,66.39,128q-2.73,3.3-3,9.17ZM112,160H93.75v-2.39l1.87-.18a8.59,8.59,0,0,0,1.64-.27A2.76,2.76,0,0,0,98.85,156a3.71,3.71,0,0,0,.53-2.12l-.59-39.6a14.71,14.71,0,0,0-.46-2.63,2.35,2.35,0,0,0-.35-.85,2.82,2.82,0,0,0-.33-.41c-.66-.56.16.21-.45-.31-.41-.34.16-.13-1-.37s-3.22.3-4,.25l-.06-2.61,13.64-.71.65.53,0,46.28a4,4,0,0,0,.49,2.08,3.13,3.13,0,0,0,1.6,1.25,8.36,8.36,0,0,0,1.65.54,13.07,13.07,0,0,0,1.84.27V160Zm23.51,0H116.92v-2.46l1.85-.15a6.73,6.73,0,0,0,1.66-.31,2.69,2.69,0,0,0,1.62-1.17,4.07,4.07,0,0,0,.54-2.18V131a4.32,4.32,0,0,0-.58-2.19,4.69,4.69,0,0,0-1.58-1.65,6.9,6.9,0,0,0-2.15-.77,16.58,16.58,0,0,0-2.57-.39v-2.42l13.6-.83.54.52v30a4.16,4.16,0,0,0,.52,2.16,3.13,3.13,0,0,0,1.67,1.26,13.14,13.14,0,0,0,1.68.55,11.38,11.38,0,0,0,1.83.28V160Zm-4.92-51.71a5.23,5.23,0,0,1-1.47,3.7,4.81,4.81,0,0,1-7.07.08,4.87,4.87,0,0,1-1.46-3.45,5,5,0,0,1,1.46-3.58,4.66,4.66,0,0,1,3.46-1.53,4.9,4.9,0,0,1,3.65,1.43A4.61,4.61,0,0,1,130.63,108.27Zm46.46,51c-1.24.42-2.31.77-3.24,1a12.28,12.28,0,0,1-3.17.39,8,8,0,0,1-4.91-1.37,6.27,6.27,0,0,1-2.34-4h-.24a19.32,19.32,0,0,1-5.5,4.13,16,16,0,0,1-7.06,1.42,10.25,10.25,0,0,1-7.19-2.55,8.59,8.59,0,0,1-2.83-6.69,11.2,11.2,0,0,1,.63-3.84,9.29,9.29,0,0,1,1.9-3.05,9.61,9.61,0,0,1,2.6-2,23,23,0,0,1,3-1.42q1.78-.63,7.18-2.37a55.55,55.55,0,0,0,7.32-2.71v-3.72a14.11,14.11,0,0,0-.22-1.87,7.84,7.84,0,0,0-.92-2.64,7.44,7.44,0,0,0-2.24-2.42,6.78,6.78,0,0,0-4.07-1,9.2,9.2,0,0,0-3.36.59,6,6,0,0,0-2.19,1.22,9.89,9.89,0,0,0,.37,2.22,10.45,10.45,0,0,1,.38,2.71,3.2,3.2,0,0,1-1.24,2.4,5,5,0,0,1-3.45,1.09,3.28,3.28,0,0,1-2.89-1.33,5.13,5.13,0,0,1-.93-3,5.23,5.23,0,0,1,1.28-3.31,12.61,12.61,0,0,1,3.33-2.81,18.64,18.64,0,0,1,4.29-1.8,17.89,17.89,0,0,1,4.92-.73,34.71,34.71,0,0,1,5.78.44,10.74,10.74,0,0,1,4.46,1.86,8.65,8.65,0,0,1,3.06,3.77,15.45,15.45,0,0,1,1.05,6.15c0,3.6,0,6.77-.13,9.54s-.11,5.8-.11,9.09A4.36,4.36,0,0,0,171,155a4.3,4.3,0,0,0,1.63,1.48,4.52,4.52,0,0,0,1.87.37c.86,0,1.73,0,2.62,0v2.4Zm-13.74-19.86c-2.23.63-4.2,1.24-5.88,1.85a23.54,23.54,0,0,0-4.68,2.26,10.51,10.51,0,0,0-3.12,3,7.44,7.44,0,0,0-1.14,4.14,5.76,5.76,0,0,0,1.72,4.6,6.51,6.51,0,0,0,4.34,1.46,9.47,9.47,0,0,0,4.94-1.29,14.3,14.3,0,0,0,3.58-3.07l.24-13ZM223.84,160h-19V157.5l2-.15a8.65,8.65,0,0,0,1.81-.31,2.81,2.81,0,0,0,1.62-1.18,4.05,4.05,0,0,0,.54-2.2V134.59a8.79,8.79,0,0,0-2-6.09,6.22,6.22,0,0,0-4.75-2.14,11.44,11.44,0,0,0-3.83.62,13.65,13.65,0,0,0-3.06,1.52,8.64,8.64,0,0,0-2.07,1.87A15.61,15.61,0,0,0,194,132v21.33a3.61,3.61,0,0,0,.55,2.1,3.53,3.53,0,0,0,1.66,1.28,8.23,8.23,0,0,0,1.78.56,16.15,16.15,0,0,0,2,.27V160H181V157.5l1.87-.15a8.27,8.27,0,0,0,1.68-.31,2.86,2.86,0,0,0,1.63-1.18,4.05,4.05,0,0,0,.53-2.2v-22.9a4.9,4.9,0,0,0-2.16-4.1,5.59,5.59,0,0,0-1.78-.66,16.09,16.09,0,0,0-2.2-.28v-2.44l12.92-.83.55.52v5.23h.19c.63-.59,1.42-1.33,2.36-2.16a21.84,21.84,0,0,1,2.68-2.05,14.4,14.4,0,0,1,3.47-1.51,16.18,16.18,0,0,1,4.53-.6c3.72,0,6.49,1.12,8.3,3.33s2.68,5.17,2.68,8.85v19.29a4.16,4.16,0,0,0,.49,2.14,3,3,0,0,0,1.61,1.25,9.77,9.77,0,0,0,1.63.53,13.26,13.26,0,0,0,1.91.23V160Zm22.74,1c-5.63,0-10-1.78-13.21-5.34s-4.76-8.33-4.76-14.32a20.71,20.71,0,0,1,1.28-7.32,20.27,20.27,0,0,1,3.72-6.18,17.17,17.17,0,0,1,5.84-4.3,17.68,17.68,0,0,1,7.64-1.65,15.39,15.39,0,0,1,9.29,2.62,8.36,8.36,0,0,1,3.59,7.12,6,6,0,0,1-.94,3.33,3.45,3.45,0,0,1-3.13,1.45,5.25,5.25,0,0,1-3.6-1.13,3.32,3.32,0,0,1-1.27-2.52,13.85,13.85,0,0,1,.47-3.48,18.69,18.69,0,0,0,.55-2.61,3.46,3.46,0,0,0-2.11-1.56,10.82,10.82,0,0,0-3-.39,8.67,8.67,0,0,0-3.6.77,9.21,9.21,0,0,0-3.32,2.83,15,15,0,0,0-2.37,5.09,28.31,28.31,0,0,0-.91,7.62q0,7,3.25,11.42a10.14,10.14,0,0,0,8.53,4.42,11.08,11.08,0,0,0,6.41-1.77,17.62,17.62,0,0,0,4.78-5.3l2.52,1.58a19.82,19.82,0,0,1-6.85,7,16.67,16.67,0,0,1-8.78,2.59Zm53.17-9.7a19.33,19.33,0,0,1-6.53,7.07,17,17,0,0,1-9.41,2.63,19.8,19.8,0,0,1-8.22-1.58,15.92,15.92,0,0,1-5.81-4.28,18,18,0,0,1-3.41-6.32,25.86,25.86,0,0,1-1.12-7.64,21.58,21.58,0,0,1,1.2-7.08,19.75,19.75,0,0,1,3.53-6.26,16.79,16.79,0,0,1,5.57-4.3,16.58,16.58,0,0,1,7.46-1.65,18.56,18.56,0,0,1,7.29,1.29,12.63,12.63,0,0,1,4.92,3.49,13.79,13.79,0,0,1,2.7,5,21,21,0,0,1,.89,6.2v2.49H273.09a27.47,27.47,0,0,0,.73,6.61,15.22,15.22,0,0,0,2.31,5.24,10.88,10.88,0,0,0,4,3.44,13,13,0,0,0,5.92,1.26,11.33,11.33,0,0,0,6.05-1.57,15.8,15.8,0,0,0,4.9-5.62l2.75,1.62Zm-8.7-14.13a29.35,29.35,0,0,0-.37-4.52,13.66,13.66,0,0,0-1.2-4,7.88,7.88,0,0,0-2.49-2.82,7,7,0,0,0-4.06-1.09,8.57,8.57,0,0,0-6.87,3.28c-1.83,2.2-2.81,5.25-3,9.17Z" transform="translate(0 0)"/><path id="path268" class="cls-2" d="M11,207H0v-1.1l1.34-.1a5,5,0,0,0,1.24-.18,1.75,1.75,0,0,0,.82-.55,1.62,1.62,0,0,0,.25-1V188.16a1.94,1.94,0,0,0-.19-.91,1.53,1.53,0,0,0-.88-.61,11.14,11.14,0,0,0-1.3-.35A10.47,10.47,0,0,0,0,186.1V185H11v1.1a11.36,11.36,0,0,0-1.27.12,9.24,9.24,0,0,0-1.29.25,1.39,1.39,0,0,0-.87.6,2,2,0,0,0-.22.93v15.92a1.66,1.66,0,0,0,.25.91,1.71,1.71,0,0,0,.84.63,10,10,0,0,0,1.18.27,9,9,0,0,0,1.38.16V207Z" transform="translate(0 0)"/><path id="path270" class="cls-2" d="M33,207H24.77v-1l.86-.07a3.77,3.77,0,0,0,.79-.12,1.23,1.23,0,0,0,.71-.49,1.62,1.62,0,0,0,.23-.9v-7.86a3.5,3.5,0,0,0-.85-2.51,2.73,2.73,0,0,0-2.06-.88,5.12,5.12,0,0,0-1.66.25,6.15,6.15,0,0,0-1.34.63,3.67,3.67,0,0,0-.9.77,6.83,6.83,0,0,0-.48.65v8.79a1.42,1.42,0,0,0,.24.87,1.5,1.5,0,0,0,.72.53,3.64,3.64,0,0,0,.77.23,8,8,0,0,0,.87.11v1H14.4v-1l.81-.07a3.58,3.58,0,0,0,.73-.12,1.17,1.17,0,0,0,.71-.49,1.54,1.54,0,0,0,.24-.9V195a2,2,0,0,0-1-1.69,2.58,2.58,0,0,0-.77-.27,7,7,0,0,0-.95-.12v-1l5.61-.35.24.22v2.15h.08l1-.89a9,9,0,0,1,1.16-.84,6.35,6.35,0,0,1,1.51-.62,7.42,7.42,0,0,1,2-.25,4.5,4.5,0,0,1,3.6,1.37,5.42,5.42,0,0,1,1.17,3.65v7.95a1.61,1.61,0,0,0,.21.88,1.3,1.3,0,0,0,.7.52,5.2,5.2,0,0,0,.71.21,4.81,4.81,0,0,0,.83.1v1Z" transform="translate(0 0)"/><path id="path272" class="cls-2" d="M54.44,206.71l-5.89.34-.25-.22v-1.42l-.14,0a7.07,7.07,0,0,1-2.2,1.47,6.53,6.53,0,0,1-2.7.58,7.13,7.13,0,0,1-5.11-2.22,8,8,0,0,1-1.6-2.57,8.91,8.91,0,0,1-.59-3.32,8.05,8.05,0,0,1,.63-3.15,8.24,8.24,0,0,1,1.74-2.6,7.92,7.92,0,0,1,2.56-1.66,8.15,8.15,0,0,1,3.09-.62,10,10,0,0,1,2.32.27,9.1,9.1,0,0,1,2,.69v-5.31a2.88,2.88,0,0,0-.24-1.19,1.75,1.75,0,0,0-.67-.81,3.48,3.48,0,0,0-1.29-.43c-.54-.08-1.12-.15-1.75-.19v-1L51.2,183l.26.24v20.6a1.78,1.78,0,0,0,.23.93,1.91,1.91,0,0,0,.68.64,2.19,2.19,0,0,0,.94.23c.41,0,.79.06,1.13.07v1ZM48.26,204v-8.94a4,4,0,0,0-.44-.87,3.93,3.93,0,0,0-1.94-1.5,4.54,4.54,0,0,0-1.55-.25,3.79,3.79,0,0,0-1.89.48,4.74,4.74,0,0,0-1.53,1.38,6.66,6.66,0,0,0-1,2.21,11.36,11.36,0,0,0-.37,3,9.63,9.63,0,0,0,.28,2.37,5.82,5.82,0,0,0,.92,2,4.5,4.5,0,0,0,1.54,1.4,4.41,4.41,0,0,0,2.21.53,4.36,4.36,0,0,0,2.27-.55A7.16,7.16,0,0,0,48.26,204" transform="translate(0 0)"/><path id="path274" class="cls-2" d="M75,206.71l-5.5.34-.25-.22v-1.94h-.1l-.93.84a7,7,0,0,1-1.18.8,8.38,8.38,0,0,1-1.49.63,7.17,7.17,0,0,1-2,.22,4.3,4.3,0,0,1-3.42-1.33A5.63,5.63,0,0,1,59,202.2v-7.31a1.79,1.79,0,0,0-.23-.94,2.05,2.05,0,0,0-.68-.66,2.48,2.48,0,0,0-.77-.27,7.35,7.35,0,0,0-1-.12v-1l5.62-.37.26.22v10.62a3.41,3.41,0,0,0,.82,2.49,2.67,2.67,0,0,0,2,.84,4.85,4.85,0,0,0,1.68-.27,5,5,0,0,0,1.23-.61,5.63,5.63,0,0,0,.81-.69,3.62,3.62,0,0,0,.54-.68v-8.66a1.65,1.65,0,0,0-.24-.91,2.11,2.11,0,0,0-.66-.67,2.05,2.05,0,0,0-.92-.23l-1.36-.07v-1l6.13-.37.25.22v12.13a1.61,1.61,0,0,0,.24.9,2.17,2.17,0,0,0,.67.64,2.24,2.24,0,0,0,.73.23c.29,0,.6.05,1,.06v1Z" transform="translate(0 0)"/><path id="path276" class="cls-2" d="M89.07,199.5a4,4,0,0,1,1.09,1.29,3.87,3.87,0,0,1,.37,1.78A4.2,4.2,0,0,1,88.78,206a7.26,7.26,0,0,1-4.55,1.35,7.42,7.42,0,0,1-2.71-.48,7.85,7.85,0,0,1-1.78-.88l-.33,1H78.12L78,201.72h1.18a5.85,5.85,0,0,0,.58,1.41,7.08,7.08,0,0,0,1.08,1.46,6.35,6.35,0,0,0,1.6,1.15,4.8,4.8,0,0,0,2.1.46,4.17,4.17,0,0,0,2.53-.67,2.31,2.31,0,0,0,.89-1.94,2.14,2.14,0,0,0-.28-1.12,2.63,2.63,0,0,0-.83-.83,6.69,6.69,0,0,0-1.39-.64c-.55-.19-1.15-.38-1.83-.56s-1.13-.35-1.79-.6a7.18,7.18,0,0,1-1.68-.9,4.59,4.59,0,0,1-1.24-1.32,3.54,3.54,0,0,1-.47-1.87,4,4,0,0,1,1.54-3.18,6.22,6.22,0,0,1,4.12-1.3,9,9,0,0,1,2,.24,7.75,7.75,0,0,1,1.69.56l.39-.81H89.4l.26,4.91H88.48a4.78,4.78,0,0,0-1.56-2.67,4.21,4.21,0,0,0-2.89-1,3.5,3.5,0,0,0-2.21.63,1.91,1.91,0,0,0-.81,1.54,2.29,2.29,0,0,0,.27,1.16,2.24,2.24,0,0,0,.8.79,6.57,6.57,0,0,0,1.29.58c.52.18,1.16.39,1.93.61a20.26,20.26,0,0,1,2.12.76,7.4,7.4,0,0,1,1.65,1" transform="translate(0 0)"/><path id="path278" class="cls-2" d="M104.35,206.32c-.74.28-1.44.51-2.1.71a9,9,0,0,1-2.43.29,3.83,3.83,0,0,1-3-1,3.92,3.92,0,0,1-.86-2.73V193.26h-3v-1.49H96V187h3.12v4.75H104v1.49H99.18v8.54a13.91,13.91,0,0,0,.08,1.6,2.6,2.6,0,0,0,.37,1.12,1.66,1.66,0,0,0,.82.69,3.94,3.94,0,0,0,1.47.23c.29,0,.7,0,1.25-.07a6.56,6.56,0,0,0,1.18-.18v1.13Z" transform="translate(0 0)"/><path id="path280" class="cls-2" d="M119.79,193.68a2.43,2.43,0,0,1-.42,1.4,1.51,1.51,0,0,1-1.32.61,2.11,2.11,0,0,1-1.46-.45,1.31,1.31,0,0,1-.51-1,3,3,0,0,1,.06-.62c0-.19.08-.37.11-.56a4.08,4.08,0,0,0-1.88.59,5.32,5.32,0,0,0-1.83,1.68v8.89a1.48,1.48,0,0,0,.23.88,1.37,1.37,0,0,0,.73.52,5,5,0,0,0,1.1.23c.45,0,.84.09,1.17.11v1h-8.9v-1l.81-.07a3.58,3.58,0,0,0,.73-.12,1.17,1.17,0,0,0,.71-.49,1.54,1.54,0,0,0,.23-.9V195a2,2,0,0,0-.25-.95,1.89,1.89,0,0,0-.69-.74,2.58,2.58,0,0,0-.77-.27,6.8,6.8,0,0,0-1-.12v-1l5.62-.35.24.22v2.15h.08A7.42,7.42,0,0,1,115,192a5.27,5.27,0,0,1,2.37-.65,2.48,2.48,0,0,1,1.76.63,2.27,2.27,0,0,1,.67,1.71" transform="translate(0 0)"/><path id="path282" class="cls-2" d="M130.27,207h-8.16v-1l.81-.07a3.58,3.58,0,0,0,.73-.12,1.17,1.17,0,0,0,.71-.49,1.62,1.62,0,0,0,.23-.9V195a1.71,1.71,0,0,0-.25-.91,2.07,2.07,0,0,0-.69-.69,3.62,3.62,0,0,0-.94-.32,8.51,8.51,0,0,0-1.13-.16v-1l6-.35.24.22V204.2a1.67,1.67,0,0,0,.22.9,1.38,1.38,0,0,0,.74.52,5.56,5.56,0,0,0,.73.23,5.65,5.65,0,0,0,.8.12v1Zm-2.15-21.49a2.24,2.24,0,0,1-2.23,2.2,2.09,2.09,0,0,1-1.51-.63,2,2,0,0,1-.64-1.44,2,2,0,0,1,.64-1.48,2.1,2.1,0,0,1,1.51-.64,2.19,2.19,0,0,1,1.6.6,1.86,1.86,0,0,1,.63,1.39" transform="translate(0 0)"/><path id="path284" class="cls-2" d="M148.18,203.39a8.19,8.19,0,0,1-2.84,2.92,7.71,7.71,0,0,1-4.09,1.08,9,9,0,0,1-3.57-.65,6.83,6.83,0,0,1-2.52-1.77,7.2,7.2,0,0,1-1.48-2.6,10.17,10.17,0,0,1-.49-3.14,8.7,8.7,0,0,1,.52-2.93,8.08,8.08,0,0,1,1.54-2.58,7.3,7.3,0,0,1,2.42-1.77,7.54,7.54,0,0,1,3.24-.68,8.58,8.58,0,0,1,3.17.53,5.5,5.5,0,0,1,2.13,1.44,5.65,5.65,0,0,1,1.18,2,8.11,8.11,0,0,1,.38,2.55v1H136.6a10.87,10.87,0,0,0,.31,2.72,6.15,6.15,0,0,0,1,2.16,4.6,4.6,0,0,0,1.74,1.42,6,6,0,0,0,2.57.52,5.13,5.13,0,0,0,2.63-.65,6.52,6.52,0,0,0,2.12-2.31l1.2.66Zm-3.78-5.82a11.31,11.31,0,0,0-.16-1.86,5.32,5.32,0,0,0-.52-1.66,3.25,3.25,0,0,0-1.08-1.16,3.18,3.18,0,0,0-1.77-.45,3.81,3.81,0,0,0-3,1.35,6,6,0,0,0-1.29,3.78Z" transform="translate(0 0)"/><path id="path286" class="cls-2" d="M162.12,199.5a3.59,3.59,0,0,1,1.45,3.07,4.18,4.18,0,0,1-1.75,3.47,7.23,7.23,0,0,1-4.54,1.35,7.42,7.42,0,0,1-2.71-.48,7.85,7.85,0,0,1-1.78-.88l-.34,1h-1.28l-.17-5.32h1.18a5.47,5.47,0,0,0,.58,1.41,6.42,6.42,0,0,0,1.08,1.46,6.18,6.18,0,0,0,1.6,1.15,4.75,4.75,0,0,0,2.09.46,4.22,4.22,0,0,0,2.54-.67,2.31,2.31,0,0,0,.89-1.94,2.24,2.24,0,0,0-.28-1.12,2.73,2.73,0,0,0-.83-.83,6.94,6.94,0,0,0-1.39-.64c-.55-.19-1.16-.38-1.83-.56s-1.14-.35-1.79-.6a7.26,7.26,0,0,1-1.69-.9,4.55,4.55,0,0,1-1.23-1.32,3.54,3.54,0,0,1-.48-1.87,4,4,0,0,1,1.54-3.18,6.23,6.23,0,0,1,4.13-1.3,9,9,0,0,1,2,.24,7.83,7.83,0,0,1,1.68.56l.39-.81h1.24l.25,4.91h-1.18A4.82,4.82,0,0,0,160,193.5a4.26,4.26,0,0,0-2.9-1,3.52,3.52,0,0,0-2.21.63,1.93,1.93,0,0,0-.8,1.54,2.29,2.29,0,0,0,.27,1.16,2.21,2.21,0,0,0,.79.79,6.85,6.85,0,0,0,1.29.58c.52.18,1.16.39,1.93.61a20.45,20.45,0,0,1,2.13.76,7.4,7.4,0,0,1,1.65,1" transform="translate(0 0)"/><path id="path288" class="cls-2" d="M194.52,200.45,194,207H175v-1.1l1.19-.11a4.61,4.61,0,0,0,1.09-.2,1.44,1.44,0,0,0,.74-.59,1.86,1.86,0,0,0,.23-1V188.25a2,2,0,0,0-.2-.93,1.42,1.42,0,0,0-.77-.65,6.9,6.9,0,0,0-1.11-.36,6.64,6.64,0,0,0-1.17-.21V185h10.25v1.1a9.07,9.07,0,0,0-1.24.15c-.5.1-.87.18-1.1.25a1.26,1.26,0,0,0-.8.64,2.24,2.24,0,0,0-.21,1v14.77a8.28,8.28,0,0,0,.11,1.59,1.4,1.4,0,0,0,.52.87,2.38,2.38,0,0,0,1.17.36,20.26,20.26,0,0,0,2.18.09l1.32,0c.46,0,.89-.06,1.31-.12a8.45,8.45,0,0,0,1.1-.26,1.89,1.89,0,0,0,.74-.41A14.82,14.82,0,0,0,192,202.8a15.17,15.17,0,0,0,1.29-2.35Z" transform="translate(0 0)"/><path id="path290" class="cls-2" d="M204.78,207h-8.16v-1l.81-.07a3.58,3.58,0,0,0,.73-.12,1.17,1.17,0,0,0,.71-.49,1.62,1.62,0,0,0,.23-.9V195a1.71,1.71,0,0,0-.25-.91,2.16,2.16,0,0,0-.69-.69,3.62,3.62,0,0,0-.94-.32,8.74,8.74,0,0,0-1.13-.16v-1l6-.35.24.22V204.2a1.67,1.67,0,0,0,.22.9,1.4,1.4,0,0,0,.73.52,6.21,6.21,0,0,0,.74.23,5.65,5.65,0,0,0,.8.12v1Zm-2.15-21.49A2.15,2.15,0,0,1,202,187a2.1,2.1,0,0,1-1.58.66,2.07,2.07,0,0,1-1.51-.63,2,2,0,0,1-.65-1.44,2,2,0,0,1,.65-1.48,2.08,2.08,0,0,1,1.51-.64,2.2,2.2,0,0,1,1.6.6,1.9,1.9,0,0,1,.63,1.39" transform="translate(0 0)"/><path id="path292" class="cls-2" d="M236.61,207h-8.24v-1l.8-.07a3.38,3.38,0,0,0,.71-.12,1.17,1.17,0,0,0,.71-.49,1.54,1.54,0,0,0,.23-.9V196.5A3.54,3.54,0,0,0,230,194a2.66,2.66,0,0,0-2-.87,5,5,0,0,0-1.57.23,5,5,0,0,0-1.35.65,4,4,0,0,0-.83.73,5.68,5.68,0,0,0-.51.67v8.81a1.8,1.8,0,0,0,.2.89,1.31,1.31,0,0,0,.7.54q.4.14.72.21a6.28,6.28,0,0,0,.83.1v1H218.1v-1l.77-.07a3.33,3.33,0,0,0,.67-.12,1.17,1.17,0,0,0,.71-.49,1.54,1.54,0,0,0,.23-.9V196.5a3.54,3.54,0,0,0-.81-2.49,2.66,2.66,0,0,0-2-.87,5,5,0,0,0-1.57.23,5.9,5.9,0,0,0-1.36.66,3.83,3.83,0,0,0-.83.77l-.51.64v8.76a1.5,1.5,0,0,0,.24.89,1.46,1.46,0,0,0,.72.54,3.65,3.65,0,0,0,.73.23,6.36,6.36,0,0,0,.84.11v1h-8.2v-1l.81-.07a3.58,3.58,0,0,0,.73-.12,1.17,1.17,0,0,0,.71-.49,1.54,1.54,0,0,0,.23-.9v-9.5a1.63,1.63,0,0,0-.25-.9,2.21,2.21,0,0,0-.69-.67,3.19,3.19,0,0,0-.8-.3,5.48,5.48,0,0,0-1-.15v-1l5.65-.35.24.22v2.18h.12l1-.91a8.83,8.83,0,0,1,1.15-.85,5.51,5.51,0,0,1,1.5-.62,7.46,7.46,0,0,1,1.94-.25,5,5,0,0,1,2.83.8A4.63,4.63,0,0,1,223.6,194c.41-.37.77-.68,1.09-1a7.89,7.89,0,0,1,1.24-.88,5.64,5.64,0,0,1,1.53-.65,7.45,7.45,0,0,1,2-.25,4.53,4.53,0,0,1,3.39,1.27,5.4,5.4,0,0,1,1.25,3.91v7.76a1.7,1.7,0,0,0,.2.89,1.27,1.27,0,0,0,.7.54,6,6,0,0,0,.78.21c.26,0,.55.08.87.1v1Z" transform="translate(0 0)"/><path id="path294" class="cls-2" d="M247.62,207h-8.17v-1l.82-.07a3.37,3.37,0,0,0,.72-.12,1.17,1.17,0,0,0,.71-.49,1.54,1.54,0,0,0,.24-.9V195a1.8,1.8,0,0,0-.25-.91,2.2,2.2,0,0,0-.7-.69,3.37,3.37,0,0,0-.94-.32,8.51,8.51,0,0,0-1.13-.16v-1l6-.35.24.22V204.2a1.67,1.67,0,0,0,.23.9,1.36,1.36,0,0,0,.73.52,5.2,5.2,0,0,0,1.54.35v1Zm-2.16-21.49a2.22,2.22,0,0,1-2.23,2.2,2.1,2.1,0,0,1-1.51-.63,2,2,0,0,1-.64-1.44,2,2,0,0,1,.64-1.48,2.11,2.11,0,0,1,1.51-.64,2.23,2.23,0,0,1,1.61.6,1.89,1.89,0,0,1,.62,1.39" transform="translate(0 0)"/><path id="path296" class="cls-2" d="M261,206.32c-.74.28-1.44.51-2.1.71a9,9,0,0,1-2.44.29,3.82,3.82,0,0,1-3-1,3.93,3.93,0,0,1-.87-2.73V193.26h-3v-1.49h3.11V187h3.12v4.75h4.84v1.49h-4.81v8.54a13.91,13.91,0,0,0,.08,1.6,2.6,2.6,0,0,0,.37,1.12,1.68,1.68,0,0,0,.81.69,4,4,0,0,0,1.48.23c.28,0,.7,0,1.25-.07a6.56,6.56,0,0,0,1.18-.18v1.13Z" transform="translate(0 0)"/><path id="path298" class="cls-2" d="M278.47,203.39a8.19,8.19,0,0,1-2.84,2.92,7.71,7.71,0,0,1-4.09,1.08,9,9,0,0,1-3.57-.65,6.83,6.83,0,0,1-2.52-1.77,7.37,7.37,0,0,1-1.49-2.6,10.16,10.16,0,0,1-.48-3.14,8.7,8.7,0,0,1,.52-2.93,8.08,8.08,0,0,1,1.54-2.58A7.3,7.3,0,0,1,268,192a7.54,7.54,0,0,1,3.24-.68,8.49,8.49,0,0,1,3.16.53,5.46,5.46,0,0,1,2.14,1.44,5.65,5.65,0,0,1,1.18,2,8.41,8.41,0,0,1,.38,2.55v1H266.88a10.86,10.86,0,0,0,.32,2.72,6.15,6.15,0,0,0,1,2.16,4.6,4.6,0,0,0,1.74,1.42,5.92,5.92,0,0,0,2.57.52,5.15,5.15,0,0,0,2.63-.65,6.52,6.52,0,0,0,2.12-2.31l1.2.66Zm-3.78-5.82a11.31,11.31,0,0,0-.16-1.86,5.32,5.32,0,0,0-.52-1.66,3.34,3.34,0,0,0-1.08-1.16,3.18,3.18,0,0,0-1.77-.45,3.79,3.79,0,0,0-3,1.35,6,6,0,0,0-1.3,3.78Z" transform="translate(0 0)"/><path id="path300" class="cls-2" d="M299.75,206.71l-5.89.34-.26-.22v-1.42l-.13,0a7,7,0,0,1-2.2,1.47,6.52,6.52,0,0,1-2.69.58,7.13,7.13,0,0,1-5.12-2.22,8,8,0,0,1-1.6-2.57,9.12,9.12,0,0,1-.59-3.32,8.09,8.09,0,0,1,2.38-5.75,7.77,7.77,0,0,1,2.55-1.66,8.15,8.15,0,0,1,3.09-.62,10,10,0,0,1,2.32.27,9.1,9.1,0,0,1,2,.69v-5.31a2.88,2.88,0,0,0-.24-1.19,1.8,1.8,0,0,0-.66-.81,3.6,3.6,0,0,0-1.3-.43c-.54-.08-1.12-.15-1.75-.19v-1l6.89-.36.26.24v20.6a1.69,1.69,0,0,0,.24.93,1.8,1.8,0,0,0,.67.64,2.19,2.19,0,0,0,.94.23c.41,0,.79.06,1.13.07v1ZM293.57,204v-8.94a4,4,0,0,0-.44-.87,3.88,3.88,0,0,0-.78-.85,4.17,4.17,0,0,0-1.16-.65,4.54,4.54,0,0,0-1.55-.25,3.79,3.79,0,0,0-1.89.48,4.74,4.74,0,0,0-1.53,1.38,6.66,6.66,0,0,0-1,2.21,11.36,11.36,0,0,0-.37,3,9.63,9.63,0,0,0,.28,2.37,5.82,5.82,0,0,0,.92,2,4.5,4.5,0,0,0,1.54,1.4,4.41,4.41,0,0,0,2.21.53,4.36,4.36,0,0,0,2.27-.55,7.16,7.16,0,0,0,1.51-1.19" transform="translate(0 0)"/></g></g></svg>