<svg xmlns="http://www.w3.org/2000/svg" viewBox="0 0 1323.94 151.89"><defs><style>.cls-1{fill:#ff7b20;}.cls-2{fill:#552402;}.cls-3{fill:#ff771c;}</style></defs><title>assets4</title><g id="Layer_2" data-name="Layer 2"><g id="Layer_1-2" data-name="Layer 1"><g id="orange"><path class="cls-1" d="M97.94,0V49.73L61,24.86Z"/><path class="cls-1" d="M97.86,81l-24-15.42-.7-16.51L97.94,65Z"/><path class="cls-1" d="M97.94,87.48,73.11,71.56l.7,16.5,24,15.43Z"/></g><g id="brown"><path class="cls-2" d="M42.94,32V87.61L0,56.83Z"/><path class="cls-2" d="M102.16,49.73V0L139.1,24.86Z"/><path class="cls-2" d="M156.94,87.61V32l42.95,24.87Z"/><path class="cls-2" d="M101.94,87.48l24.83-15.92-.69,16.5-24,15.43Z"/><path class="cls-2" d="M101.94,65l24.83-15.93-.69,16.51L102,81Z"/></g><path class="cls-2" d="M425.22,147.19a12.51,12.51,0,0,0,6.32,1.78c3.62,0,5.73-1.9,5.73-4.66,0-2.56-1.46-4-5.16-5.44-4.46-1.58-7.22-3.9-7.22-7.75,0-4.26,3.53-7.42,8.85-7.42a12.42,12.42,0,0,1,6,1.33l-1,2.89a10.89,10.89,0,0,0-5.2-1.3c-3.73,0-5.15,2.23-5.15,4.09,0,2.56,1.66,3.82,5.44,5.28,4.62,1.78,7,4,7,8,0,4.22-3.13,7.87-9.58,7.87a14.17,14.17,0,0,1-7-1.74Z"/><path class="cls-2" d="M472,138.67H461.4v9.86h11.85v3H457.88V124.14h14.76v3H461.4v8.65H472Z"/><path class="cls-2" d="M490,124.51a36.27,36.27,0,0,1,6.77-.57c3.78,0,6.21.69,7.91,2.23a6.81,6.81,0,0,1,2.15,5.19,7.18,7.18,0,0,1-5.15,7v.12c2.11.73,3.37,2.68,4,5.52.89,3.82,1.54,6.45,2.11,7.51h-3.65a35.06,35.06,0,0,1-1.83-6.53c-.81-3.78-2.27-5.2-5.48-5.32h-3.32v11.85H490ZM493.54,137h3.61c3.77,0,6.16-2.07,6.16-5.19,0-3.53-2.55-5.07-6.29-5.11a14.6,14.6,0,0,0-3.48.32Z"/><path class="cls-2" d="M530.66,151.49l-8.93-27.35h3.82l4.26,13.47c1.17,3.69,2.19,7,2.92,10.23h.08c.77-3.17,1.91-6.62,3.12-10.19l4.63-13.51h3.77l-9.78,27.35Z"/><path class="cls-2" d="M563,124.14v27.35h-3.53V124.14Z"/><path class="cls-2" d="M600.44,150.6a17.69,17.69,0,0,1-7.22,1.29c-7.71,0-13.51-4.86-13.51-13.83,0-8.56,5.8-14.36,14.28-14.36a14.76,14.76,0,0,1,6.49,1.21l-.85,2.88a12.87,12.87,0,0,0-5.52-1.13c-6.41,0-10.67,4.1-10.67,11.28,0,6.69,3.85,11,10.51,11a14.12,14.12,0,0,0,5.76-1.13Z"/><path class="cls-2" d="M631.19,138.67H620.56v9.86h11.85v3H617V124.14H631.8v3H620.56v8.65h10.63Z"/><path class="cls-2" d="M673.47,124.14v27.35h-3.53V124.14Z"/><path class="cls-2" d="M691.8,151.49V124.14h3.86L704.42,138a77,77,0,0,1,4.91,8.88l.08,0c-.32-3.65-.4-7-.4-11.24V124.14h3.32v27.35h-3.57l-8.68-13.88a86.21,86.21,0,0,1-5.11-9.13l-.12,0c.2,3.45.28,6.74.28,11.28v11.69Z"/><path class="cls-3" d="M765.6,138.67H755v9.86h11.85v3H751.44V124.14h14.77v3H755v8.65H765.6Z"/><path class="cls-3" d="M798.54,151.49l-3.49-6.05c-1.42-2.31-2.31-3.81-3.16-5.39h-.08c-.77,1.58-1.54,3-3,5.43l-3.29,6H781.5l8.36-13.84-8-13.51h4.1l3.61,6.41c1,1.79,1.78,3.17,2.51,4.63h.12c.77-1.63,1.46-2.88,2.48-4.63l3.73-6.41h4.06l-8.32,13.31,8.52,14Z"/><path class="cls-3" d="M836.84,150.6a17.65,17.65,0,0,1-7.22,1.29c-7.71,0-13.51-4.86-13.51-13.83,0-8.56,5.8-14.36,14.28-14.36a14.76,14.76,0,0,1,6.49,1.21l-.85,2.88a12.84,12.84,0,0,0-5.52-1.13c-6.41,0-10.67,4.1-10.67,11.28,0,6.69,3.86,11,10.51,11a14.12,14.12,0,0,0,5.76-1.13Z"/><path class="cls-3" d="M867.59,138.67H857v9.86h11.85v3H853.44V124.14H868.2v3H857v8.65h10.63Z"/><path class="cls-3" d="M885.57,124.14h3.53v24.39h11.68v3H885.57Z"/><path class="cls-3" d="M916.89,124.14h3.53v24.39H932.1v3H916.89Z"/><path class="cls-3" d="M962.37,138.67H951.74v9.86h11.84v3H948.21V124.14H963v3H951.74v8.65h10.63Z"/><path class="cls-3" d="M980.34,151.49V124.14h3.85L993,138a78.49,78.49,0,0,1,4.91,8.88l.08,0c-.33-3.65-.41-7-.41-11.24V124.14h3.33v27.35H997.3l-8.69-13.88a88,88,0,0,1-5.11-9.13l-.12,0c.2,3.45.28,6.74.28,11.28v11.69Z"/><path class="cls-3" d="M1038.31,150.6a17.65,17.65,0,0,1-7.22,1.29c-7.71,0-13.51-4.86-13.51-13.83,0-8.56,5.8-14.36,14.28-14.36a14.76,14.76,0,0,1,6.49,1.21l-.85,2.88a12.84,12.84,0,0,0-5.52-1.13c-6.41,0-10.67,4.1-10.67,11.28,0,6.69,3.86,11,10.51,11a14.12,14.12,0,0,0,5.76-1.13Z"/><path class="cls-3" d="M1069.07,138.67h-10.63v9.86h11.84v3h-15.37V124.14h14.77v3h-11.24v8.65h10.63Z"/><g id="pvt"><path class="cls-2" d="M1154.84,59.58a37.42,37.42,0,0,1,6.19-.48c3.19,0,5.52.74,7,2.07a6.73,6.73,0,0,1,2.19,5.23,7.33,7.33,0,0,1-1.93,5.33c-1.7,1.82-4.48,2.75-7.63,2.75a10.89,10.89,0,0,1-2.6-.23v10h-3.22Zm3.22,12a10.66,10.66,0,0,0,2.67.26c3.89,0,6.26-1.89,6.26-5.33s-2.33-4.89-5.89-4.89a14.24,14.24,0,0,0-3,.25Z"/><path class="cls-2" d="M1187,66.32l3.52,10.08a43.73,43.73,0,0,1,1.45,4.6h.11c.41-1.49.93-3,1.52-4.6L1197,66.32h3.41l-7,17.94h-3.11l-6.82-17.94Z"/><path class="cls-2" d="M1218.57,61.17v5.15h4.67v2.49h-4.67v9.67c0,2.22.63,3.48,2.44,3.48a7.23,7.23,0,0,0,1.89-.22l.15,2.44a8,8,0,0,1-2.89.45,4.52,4.52,0,0,1-3.52-1.37c-.92-1-1.26-2.56-1.26-4.67V68.81h-2.78V66.32h2.78V62Z"/><path class="cls-2" d="M1237.13,82.33a2.19,2.19,0,0,1,2.22-2.33,2.34,2.34,0,0,1,0,4.67A2.19,2.19,0,0,1,1237.13,82.33Z"/><path class="cls-2" d="M1256.81,59.28H1260V81.55h10.67v2.71h-13.89Z"/><path class="cls-2" d="M1289.08,61.17v5.15h4.67v2.49h-4.67v9.67c0,2.22.63,3.48,2.44,3.48a7.36,7.36,0,0,0,1.89-.22l.15,2.44a8,8,0,0,1-2.89.45,4.52,4.52,0,0,1-3.52-1.37c-.93-1-1.26-2.56-1.26-4.67V68.81h-2.78V66.32h2.78V62Z"/><path class="cls-2" d="M1323.79,58V79.63c0,1.59,0,3.41.15,4.63H1321l-.15-3.11h-.08a6.63,6.63,0,0,1-6.11,3.52c-4.34,0-7.67-3.67-7.67-9.12,0-6,3.67-9.63,8-9.63a6,6,0,0,1,5.41,2.74h.07V58Zm-3.26,15.67a5.85,5.85,0,0,0-.14-1.37,4.81,4.81,0,0,0-4.71-3.78c-3.37,0-5.37,3-5.37,6.93,0,3.63,1.78,6.63,5.3,6.63a4.91,4.91,0,0,0,4.78-3.89,5.68,5.68,0,0,0,.14-1.4Z"/></g><path class="cls-1" d="M394.61,76.67c0-6-4.15-8.64-13.4-11.77l-4-1.38c-10.85-3.68-18.3-9-18.3-18.39,0-10.58,10.32-17,23.83-17A31.26,31.26,0,0,1,400,33l-.64,12H393l-3-13.89,6.8,3v4.6c-5.21-4.41-9.14-6-14.78-6-8.3,0-14.57,3.59-14.57,10.49,0,5.79,4.36,9.19,12.12,11.77l4.15,1.38c14,4.69,19.47,10,19.47,18.67,0,10.85-10.53,17.47-25.11,17.47a45.6,45.6,0,0,1-20.63-4.88l.64-12.87h6.38l2.76,14.16-6.91-2.57V81.91c6.59,4.14,10.21,6,17.44,6C387.91,87.89,394.61,83.84,394.61,76.67Z"/><path class="cls-2" d="M235.92,39.78h9.81v3.53h-.9l-8.91-1Zm0,40.48,7.8-1h1.49l7.28,1v2.57H235.92Zm6.68-40.48h3.13l.67,19.14V82.83h-3.8Zm.08,0h6.61L267.5,78.33H265l17.24-38.55h3.94l-19.4,43.05h-3.64Zm33.89,40.48,8.92-1H287l9.66,1v2.57H276.57ZM283,62.91V39.78h6.76c-.22,6.49-.22,13.17-.22,19.92v3.21c0,6.62,0,13.3.22,19.92h-7C283,76.34,283,69.66,283,62.91Zm3.19-23.13h10.41v2.57l-9.66,1h-.75Z"/><path class="cls-2" d="M305.93,80.26l7.43-1h1.49l8.17,1v2.57H305.93Zm22.15-40.8h4.45l17.1,43.37h-6.91L327.78,44.34h1.71L314.33,82.83h-3.5Zm-8.7,26.34h20.07l1.19,3H318.19ZM334,80.26l9.37-1h1.48l9.22,1v2.57H334Z"/><path class="cls-2" d="M407.82,43l3.35-3.21-2.38,11.43h-4.16l.59-11.43H445.8l.6,11.43h-4.17l-2.37-11.43L443.2,43Zm18.43,36.3,10.41,1v2.57h-22.3V80.26l10.41-1ZM422.17,59.7c0-6.62,0-13.3-.23-19.92h7.14c-.22,6.49-.22,13.17-.22,19.92v3.21c0,6.62,0,13.3.22,19.92h-7.14c.23-6.49.23-13.17.23-19.92Z"/><path class="cls-2" d="M456.8,42.35V39.78h10.4v3.53h-.74Zm10.4,36.94v3.54H456.8V80.26l9.66-1ZM463.86,59.7c0-6.62,0-13.3-.22-19.92h7.13c-.22,6.49-.22,13.17-.22,19.92v2.44c0,7.39,0,14.07.22,20.69h-7.13c.22-6.49.22-13.17.22-19.92Zm23.93-19.92L491.14,43H467.2V39.78h26.54l.52,11.43H490.1ZM484,62.33H467.2v-3H484Zm11.75,9.06-.52,11.44h-28V79.61h25.42l-3.34,3.22,2.3-11.44ZM481.62,60l1.12-6.81h3.34V68.43h-3.34l-1.12-7.13Z"/><path class="cls-2" d="M507.26,42.35V39.78h20.81v2.57l-9.66,1h-1.49Zm11.15,36.94,9.66,1v2.57H507.26V80.26l9.66-1ZM514.32,59.7c0-6.62,0-13.3-.22-19.92H521c-.22,6.49-.22,13.17-.22,19.92v4.88c0,5,0,11.63.22,18.25H514.1c.22-6.49.22-13.17.22-19.92Zm3.2,7.58,26-27.5H548L517.52,71.45Zm13.75-12.4,18,27.95h-7l-14.87-24ZM534,80.26l8.92-1h1.11l8.92,1v2.57H534Zm.82-37.91V39.78h17.09v2.57l-8.17,1-1.49.32Z"/><path class="cls-2" d="M585.23,42.35V39.78h10.4v3.53h-.74Zm10.4,36.94v3.54h-10.4V80.26l9.66-1ZM592.29,59.7c0-6.62,0-13.3-.23-19.92h7.14C599,46.27,599,53,599,59.7v2.44c0,7.39,0,14.07.22,20.69h-7.14c.23-6.49.23-13.17.23-19.92Zm23.93-19.92L619.56,43H595.63V39.78h26.54l.52,11.43h-4.17Zm-3.79,22.55h-16.8v-3h16.8Zm11.74,9.06-.52,11.44h-28V79.61h25.42l-3.34,3.22L620,71.39ZM610.05,60l1.11-6.81h3.35V68.43h-3.35l-1.11-7.13Z"/><path class="cls-2" d="M635.32,80.26l7.8-1h1.49l8.55,1v2.57H635.32ZM640,41.77l4.61,1.54-8.92-1V39.78h11.15l30.84,36.69v6.81H675.3Zm1.63-2,3.72,2.57V82.83h-3.72Zm24.53,0H684v2.57l-7.43,1h-1.49l-8.92-1Zm7.81,0h3.71v43.5L674,80.06Z"/><path class="cls-2" d="M736,80a38.23,38.23,0,0,1-16.35,3.79c-14.87,0-25-9.57-25-22.49s10.18-22.49,25.27-22.49c6.17,0,10.77,1,14.94,3.09l.29,9.31H730.6l-1.86-9.51L733.35,43v3.66A19.61,19.61,0,0,0,720.49,42c-10.4,0-18.06,7-18.06,19.27s7,19.21,18.58,19.21a27.18,27.18,0,0,0,11.6-2.63l-3.35,3V77.17c0-4.88-.07-9.89-.22-14.78h7.13c-.15,4.82-.22,9.77-.22,14.78ZM721.31,65V62.39h19.32V65l-8.17.65H731Z"/><path class="cls-2" d="M749.92,42.35V39.78h20.81v2.57l-9.66,1h-1.49Zm11.15,36.94,9.66,1v2.57H749.92V80.26l9.66-1ZM757,59.7c0-6.62,0-13.3-.22-19.92h7.13c-.22,6.49-.22,13.17-.22,19.92v3.21c0,6.62,0,13.3.22,19.92h-7.13c.22-6.49.22-13.17.22-19.92Z"/><path class="cls-2" d="M782.62,80.26l7.81-1h1.48l8.55,1v2.57H782.62Zm4.68-38.49,4.61,1.54-8.92-1V39.78h11.15L825,76.47v6.81h-2.38Zm1.64-2,3.72,2.57V82.83h-3.72Zm24.53,0h17.84v2.57l-7.44,1h-1.48l-8.92-1Zm7.8,0H825v43.5l-3.72-3.22Z"/><path class="cls-2" d="M842.45,42.35V39.78h10.41v3.53h-.75Zm10.41,36.94v3.54H842.45V80.26l9.66-1ZM849.51,59.7c0-6.62,0-13.3-.22-19.92h7.13c-.22,6.49-.22,13.17-.22,19.92v2.44c0,7.39,0,14.07.22,20.69h-7.13c.22-6.49.22-13.17.22-19.92Zm23.93-19.92L876.79,43H852.86V39.78h26.53l.52,11.43h-4.16Zm-3.79,22.55H852.86v-3h16.79Zm11.75,9.06-.52,11.44h-28V79.61h25.42l-3.35,3.22,2.3-11.44ZM867.27,60l1.12-6.81h3.34V68.43h-3.34l-1.12-7.13Z"/><path class="cls-2" d="M892.91,42.35V39.78h10.41v3.53h-.74Zm10.41,36.94v3.54H892.91V80.26l9.67-1ZM900,59.7c0-6.62,0-13.3-.23-19.92h7.14c-.23,6.49-.23,13.17-.23,19.92v2.44c0,7.39,0,14.07.23,20.69h-7.14c.23-6.49.23-13.17.23-19.92Zm23.93-19.92L927.25,43H903.32V39.78h26.53l.52,11.43h-4.16Zm-3.79,22.55h-16.8v-3h16.8Zm11.74,9.06-.52,11.44h-28V79.61h25.42l-3.35,3.22,2.31-11.44ZM917.74,60l1.11-6.81h3.35V68.43h-3.35l-1.11-7.13Z"/><path class="cls-2" d="M943.38,42.35V39.78h10.4v3.53H953Zm11.15,36.94,9.66,1v2.57H943.38V80.26l9.66-1ZM950.44,59.7c0-6.62,0-13.3-.22-19.92h7.13c-.22,6.68-.22,13-.22,20.56v1.93c0,7.26,0,13.94.22,20.56h-7.13c.22-6.49.22-13.17.22-19.92Zm3.34.32h9.29c8,0,11.9-3.73,11.9-8.93,0-5.4-3.35-8.36-11.08-8.36H953.78V39.78H964C975.34,39.78,982,44,982,51.09c0,5.46-5,10.41-14.72,11.11l.22-.51c5.36.45,8.63,2.57,10.63,8.35l3.64,10.67-2.3-1.22,7.66.77v2.57a19.94,19.94,0,0,1-5.36.64c-4.6,0-6.61-1-7.5-4l-3-10.48c-1.49-5.2-4.24-6.1-10.4-6.1h-7.07Z"/><path class="cls-2" d="M997.19,42.35V39.78H1018v2.57l-9.67,1h-1.48Zm11.14,36.94,9.67,1v2.57H997.19V80.26l9.66-1Zm-4.08-19.59c0-6.62,0-13.3-.23-19.92h7.14c-.22,6.49-.22,13.17-.22,19.92v3.21c0,6.62,0,13.3.22,19.92H1004c.23-6.49.23-13.17.23-19.92Z"/><path class="cls-2" d="M1029.89,80.26l7.8-1h1.49l8.55,1v2.57h-17.84Zm4.68-38.49,4.61,1.54-8.92-1V39.78h11.15l30.84,36.69v6.81h-2.38Zm1.64-2,3.71,2.57V82.83h-3.71Zm24.52,0h17.84v2.57l-7.43,1h-1.49l-8.92-1Zm7.81,0h3.71v43.5l-3.71-3.22Z"/><path class="cls-2" d="M1130.52,80a38.23,38.23,0,0,1-16.35,3.79c-14.87,0-25-9.57-25-22.49s10.18-22.49,25.27-22.49c6.17,0,10.77,1,14.94,3.09l.29,9.31h-4.53l-1.86-9.51,4.61,1.29v3.66A19.61,19.61,0,0,0,1115.06,42c-10.4,0-18.06,7-18.06,19.27s7,19.21,18.58,19.21a27.18,27.18,0,0,0,11.6-2.63l-3.35,3V77.17c0-4.88-.07-9.89-.22-14.78h7.13c-.14,4.82-.22,9.77-.22,14.78Zm-14.64-15V62.39h19.32V65l-8.17.65h-1.49Z"/></g></g></svg>